<svg width="250" height="62" viewBox="0 0 250 62" fill="none" xmlns="http://www.w3.org/2000/svg">
<rect width="250" height="62" rx="31" fill="url(#paint0_linear_107_17)"/>
<path d="M85.1932 21.2344H88.3573C88.3052 22.2109 88.0383 23.0736 87.5565 23.8223C87.0812 24.5645 86.4204 25.1471 85.5741 25.5703C84.7277 25.987 83.7219 26.1953 82.5565 26.1953C81.6255 26.1953 80.7922 26.0358 80.0565 25.7168C79.3208 25.3978 78.6958 24.9421 78.1815 24.3496C77.6737 23.7507 77.2831 23.0312 77.0096 22.1914C76.7427 21.3451 76.6092 20.3913 76.6092 19.3301V18.4609C76.6092 17.3997 76.7492 16.446 77.0291 15.5996C77.3091 14.7533 77.7095 14.0306 78.2303 13.4316C78.7511 12.8327 79.3761 12.3737 80.1053 12.0547C80.8345 11.7357 81.6483 11.5762 82.5467 11.5762C83.7577 11.5762 84.7798 11.7943 85.6131 12.2305C86.4465 12.6667 87.091 13.2656 87.5467 14.0273C88.009 14.7891 88.2857 15.6582 88.3768 16.6348H85.203C85.1769 16.0814 85.0728 15.6159 84.8905 15.2383C84.7082 14.8542 84.4282 14.5645 84.0506 14.3691C83.673 14.1738 83.1717 14.0762 82.5467 14.0762C82.091 14.0762 81.6906 14.1608 81.3456 14.3301C81.007 14.4993 80.7238 14.763 80.4959 15.1211C80.2746 15.4792 80.1086 15.9349 79.9979 16.4883C79.8872 17.0352 79.8319 17.6862 79.8319 18.4414V19.3301C79.8319 20.0788 79.8807 20.7266 79.9784 21.2734C80.076 21.8203 80.2323 22.2728 80.4471 22.6309C80.6685 22.9889 80.9517 23.2559 81.2967 23.4316C81.6418 23.6074 82.0617 23.6953 82.5565 23.6953C83.1229 23.6953 83.5949 23.6074 83.9725 23.4316C84.3501 23.2493 84.6398 22.9759 84.8416 22.6113C85.0435 22.2467 85.1607 21.7878 85.1932 21.2344ZM94.9491 26.1953C94.1092 26.1953 93.3573 26.0618 92.6932 25.7949C92.0291 25.528 91.466 25.1602 91.0038 24.6914C90.548 24.2161 90.1997 23.6693 89.9588 23.0508C89.7179 22.4323 89.5975 21.7715 89.5975 21.0684V20.6973C89.5975 19.9095 89.7082 19.1836 89.9295 18.5195C90.1509 17.8555 90.4732 17.2793 90.8963 16.791C91.326 16.2962 91.8534 15.9154 92.4784 15.6484C93.1034 15.375 93.8163 15.2383 94.617 15.2383C95.3657 15.2383 96.0331 15.362 96.619 15.6094C97.2049 15.8503 97.6997 16.1986 98.1034 16.6543C98.507 17.1035 98.813 17.6471 99.0213 18.2852C99.2362 18.9167 99.3436 19.6263 99.3436 20.4141V21.6641H90.828V19.7012H96.3553V19.4668C96.3553 19.0957 96.287 18.7702 96.1502 18.4902C96.02 18.2103 95.8247 17.9954 95.5643 17.8457C95.3104 17.6895 94.9881 17.6113 94.5975 17.6113C94.2264 17.6113 93.9172 17.6895 93.6698 17.8457C93.4224 18.002 93.2238 18.2233 93.0741 18.5098C92.9308 18.7897 92.8267 19.1185 92.7616 19.4961C92.6965 19.8672 92.6639 20.2676 92.6639 20.6973V21.0684C92.6639 21.4785 92.7192 21.8529 92.8299 22.1914C92.9406 22.5299 93.1034 22.8197 93.3182 23.0605C93.5331 23.3014 93.7935 23.4902 94.0995 23.627C94.4054 23.7637 94.7538 23.832 95.1444 23.832C95.6261 23.832 96.0851 23.7409 96.5213 23.5586C96.9575 23.3698 97.3351 23.0768 97.6541 22.6797L99.0799 24.3105C98.8651 24.623 98.5623 24.9258 98.1717 25.2188C97.7876 25.5052 97.3254 25.7396 96.785 25.9219C96.2446 26.1042 95.6327 26.1953 94.9491 26.1953ZM103.885 17.8945V26H100.838V15.4336H103.699L103.885 17.8945ZM107.039 15.3555L106.99 18.1973C106.86 18.1777 106.691 18.1615 106.482 18.1484C106.274 18.1289 106.095 18.1191 105.945 18.1191C105.555 18.1191 105.216 18.168 104.93 18.2656C104.65 18.3568 104.415 18.4935 104.226 18.6758C104.044 18.8581 103.907 19.0859 103.816 19.3594C103.725 19.6263 103.68 19.9355 103.68 20.2871L103.103 20.0039C103.103 19.3073 103.172 18.6693 103.308 18.0898C103.445 17.5104 103.644 17.0091 103.904 16.5859C104.165 16.1562 104.484 15.8242 104.861 15.5898C105.239 15.3555 105.668 15.2383 106.15 15.2383C106.306 15.2383 106.466 15.248 106.629 15.2676C106.792 15.2871 106.928 15.3164 107.039 15.3555ZM114.148 15.4336V17.5723H107.879V15.4336H114.148ZM109.314 12.8164H112.371V22.6895C112.371 22.9824 112.407 23.207 112.478 23.3633C112.55 23.5195 112.667 23.6302 112.83 23.6953C112.993 23.7539 113.201 23.7832 113.455 23.7832C113.637 23.7832 113.793 23.7767 113.924 23.7637C114.054 23.7507 114.174 23.7344 114.285 23.7148V25.9219C114.025 26.0065 113.748 26.0716 113.455 26.1172C113.162 26.1693 112.843 26.1953 112.498 26.1953C111.84 26.1953 111.271 26.0879 110.789 25.873C110.314 25.6582 109.949 25.3197 109.695 24.8574C109.441 24.3887 109.314 23.7799 109.314 23.0312V12.8164ZM118.826 15.4336V26H115.769V15.4336H118.826ZM115.584 12.6992C115.584 12.2565 115.74 11.8952 116.053 11.6152C116.365 11.3288 116.775 11.1855 117.283 11.1855C117.791 11.1855 118.201 11.3288 118.514 11.6152C118.833 11.8952 118.992 12.2565 118.992 12.6992C118.992 13.1354 118.833 13.4967 118.514 13.7832C118.201 14.0632 117.791 14.2031 117.283 14.2031C116.775 14.2031 116.365 14.0632 116.053 13.7832C115.74 13.4967 115.584 13.1354 115.584 12.6992ZM124.812 26H121.746V15.0527C121.746 14.1348 121.935 13.36 122.312 12.7285C122.696 12.097 123.247 11.6185 123.963 11.293C124.679 10.9609 125.542 10.7949 126.551 10.7949C127.13 10.7949 127.687 10.847 128.221 10.9512C128.761 11.0553 129.318 11.1921 129.89 11.3613L129.461 13.793C129.09 13.6823 128.696 13.5814 128.279 13.4902C127.862 13.3991 127.351 13.3535 126.746 13.3535C126.121 13.3535 125.642 13.5 125.31 13.793C124.978 14.0794 124.812 14.4993 124.812 15.0527V26ZM126.892 15.4336V17.5723H120.193V15.4336H126.892ZM131.297 15.4336V26H128.24V15.4336H131.297ZM137.898 23.8223C138.224 23.8223 138.507 23.7604 138.748 23.6367C138.989 23.513 139.174 23.3405 139.305 23.1191C139.441 22.8913 139.51 22.6178 139.51 22.2988H142.381C142.381 23.0671 142.182 23.7441 141.785 24.3301C141.394 24.916 140.867 25.375 140.203 25.707C139.539 26.0326 138.79 26.1953 137.957 26.1953C137.137 26.1953 136.42 26.0618 135.808 25.7949C135.196 25.5215 134.685 25.1406 134.275 24.6523C133.865 24.1641 133.556 23.5977 133.348 22.9531C133.146 22.3021 133.045 21.599 133.045 20.8438V20.5898C133.045 19.8411 133.146 19.1413 133.348 18.4902C133.556 17.8392 133.865 17.2695 134.275 16.7812C134.685 16.293 135.193 15.9154 135.799 15.6484C136.411 15.375 137.127 15.2383 137.947 15.2383C138.813 15.2383 139.578 15.4043 140.242 15.7363C140.913 16.0684 141.437 16.5469 141.814 17.1719C142.192 17.7904 142.381 18.5358 142.381 19.4082H139.51C139.51 19.0697 139.448 18.7669 139.324 18.5C139.207 18.2266 139.025 18.0117 138.777 17.8555C138.536 17.6927 138.237 17.6113 137.879 17.6113C137.508 17.6113 137.202 17.6927 136.961 17.8555C136.726 18.0117 136.547 18.2298 136.424 18.5098C136.3 18.7897 136.215 19.1087 136.17 19.4668C136.124 19.8184 136.101 20.1927 136.101 20.5898V20.8438C136.101 21.2474 136.124 21.6315 136.17 21.9961C136.215 22.3542 136.3 22.6699 136.424 22.9434C136.554 23.2168 136.736 23.4316 136.971 23.5879C137.205 23.7441 137.514 23.8223 137.898 23.8223ZM149.49 23.4805V18.9492C149.49 18.6302 149.441 18.3568 149.344 18.1289C149.246 17.901 149.093 17.722 148.885 17.5918C148.676 17.4616 148.406 17.3965 148.074 17.3965C147.794 17.3965 147.55 17.4453 147.342 17.543C147.14 17.6406 146.984 17.7806 146.873 17.9629C146.769 18.1452 146.717 18.3698 146.717 18.6367H143.67C143.67 18.1615 143.777 17.7188 143.992 17.3086C144.207 16.8984 144.513 16.5371 144.91 16.2246C145.314 15.9121 145.795 15.6712 146.355 15.502C146.915 15.3262 147.543 15.2383 148.24 15.2383C149.067 15.2383 149.803 15.3783 150.447 15.6582C151.098 15.9316 151.612 16.3451 151.99 16.8984C152.368 17.4453 152.556 18.1354 152.556 18.9688V23.3926C152.556 24.0306 152.592 24.5319 152.664 24.8965C152.742 25.2546 152.853 25.5671 152.996 25.834V26H149.92C149.777 25.694 149.669 25.3164 149.598 24.8672C149.526 24.4115 149.49 23.9492 149.49 23.4805ZM149.871 19.5547L149.89 21.2344H148.377C148.038 21.2344 147.745 21.2767 147.498 21.3613C147.257 21.446 147.062 21.5632 146.912 21.7129C146.762 21.8561 146.652 22.0254 146.58 22.2207C146.515 22.4095 146.482 22.6178 146.482 22.8457C146.482 23.0605 146.534 23.2559 146.639 23.4316C146.743 23.6009 146.886 23.7344 147.068 23.832C147.25 23.9297 147.462 23.9785 147.703 23.9785C148.1 23.9785 148.439 23.9004 148.719 23.7441C149.005 23.5879 149.226 23.3991 149.383 23.1777C149.539 22.9499 149.617 22.7383 149.617 22.543L150.349 23.8125C150.232 24.0729 150.089 24.3431 149.92 24.623C149.75 24.8965 149.536 25.1536 149.275 25.3945C149.015 25.6289 148.699 25.821 148.328 25.9707C147.963 26.1204 147.524 26.1953 147.01 26.1953C146.346 26.1953 145.743 26.0618 145.203 25.7949C144.663 25.5215 144.23 25.1471 143.904 24.6719C143.585 24.1966 143.426 23.6497 143.426 23.0312C143.426 22.4779 143.527 21.9863 143.728 21.5566C143.93 21.127 144.233 20.7624 144.637 20.4629C145.047 20.1634 145.561 19.9388 146.18 19.7891C146.798 19.6328 147.521 19.5547 148.348 19.5547H149.871ZM159.93 15.4336V17.5723H153.66V15.4336H159.93ZM155.096 12.8164H158.152V22.6895C158.152 22.9824 158.188 23.207 158.26 23.3633C158.331 23.5195 158.448 23.6302 158.611 23.6953C158.774 23.7539 158.982 23.7832 159.236 23.7832C159.418 23.7832 159.575 23.7767 159.705 23.7637C159.835 23.7507 159.956 23.7344 160.066 23.7148V25.9219C159.806 26.0065 159.529 26.0716 159.236 26.1172C158.943 26.1693 158.624 26.1953 158.279 26.1953C157.622 26.1953 157.052 26.0879 156.57 25.873C156.095 25.6582 155.73 25.3197 155.476 24.8574C155.223 24.3887 155.096 23.7799 155.096 23.0312V12.8164ZM166.375 26.1953C165.535 26.1953 164.783 26.0618 164.119 25.7949C163.455 25.528 162.892 25.1602 162.43 24.6914C161.974 24.2161 161.625 23.6693 161.385 23.0508C161.144 22.4323 161.023 21.7715 161.023 21.0684V20.6973C161.023 19.9095 161.134 19.1836 161.355 18.5195C161.577 17.8555 161.899 17.2793 162.322 16.791C162.752 16.2962 163.279 15.9154 163.904 15.6484C164.529 15.375 165.242 15.2383 166.043 15.2383C166.792 15.2383 167.459 15.362 168.045 15.6094C168.631 15.8503 169.125 16.1986 169.529 16.6543C169.933 17.1035 170.239 17.6471 170.447 18.2852C170.662 18.9167 170.769 19.6263 170.769 20.4141V21.6641H162.254V19.7012H167.781V19.4668C167.781 19.0957 167.713 18.7702 167.576 18.4902C167.446 18.2103 167.25 17.9954 166.99 17.8457C166.736 17.6895 166.414 17.6113 166.023 17.6113C165.652 17.6113 165.343 17.6895 165.096 17.8457C164.848 18.002 164.65 18.2233 164.5 18.5098C164.357 18.7897 164.252 19.1185 164.187 19.4961C164.122 19.8672 164.09 20.2676 164.09 20.6973V21.0684C164.09 21.4785 164.145 21.8529 164.256 22.1914C164.366 22.5299 164.529 22.8197 164.744 23.0605C164.959 23.3014 165.219 23.4902 165.525 23.627C165.831 23.7637 166.18 23.832 166.57 23.832C167.052 23.832 167.511 23.7409 167.947 23.5586C168.383 23.3698 168.761 23.0768 169.08 22.6797L170.506 24.3105C170.291 24.623 169.988 24.9258 169.598 25.2188C169.213 25.5052 168.751 25.7396 168.211 25.9219C167.67 26.1042 167.058 26.1953 166.375 26.1953ZM44.7538 49H41.6873V37.5352C41.6873 36.7214 41.8469 36.0378 42.1659 35.4844C42.4914 34.931 42.9504 34.5111 43.5428 34.2246C44.1353 33.9382 44.8351 33.7949 45.6424 33.7949C45.9224 33.7949 46.1828 33.8145 46.4237 33.8535C46.6711 33.8861 46.912 33.9316 47.1463 33.9902V36.2656C47.0226 36.2331 46.8957 36.2103 46.7655 36.1973C46.6353 36.1842 46.479 36.1777 46.2967 36.1777C45.9712 36.1777 45.6913 36.2298 45.4569 36.334C45.229 36.4316 45.0532 36.5846 44.9295 36.793C44.8123 36.9948 44.7538 37.2422 44.7538 37.5352V49ZM46.8436 38.4336V40.5723H40.1444V38.4336H46.8436ZM47.7225 43.8242V43.6191C47.7225 42.8444 47.8332 42.1315 48.0545 41.4805C48.2759 40.8229 48.6014 40.2533 49.0311 39.7715C49.4608 39.2897 49.9881 38.9154 50.6131 38.6484C51.2381 38.375 51.9543 38.2383 52.7616 38.2383C53.5819 38.2383 54.3045 38.375 54.9295 38.6484C55.561 38.9154 56.0916 39.2897 56.5213 39.7715C56.951 40.2533 57.2765 40.8229 57.4979 41.4805C57.7192 42.1315 57.8299 42.8444 57.8299 43.6191V43.8242C57.8299 44.5924 57.7192 45.3053 57.4979 45.9629C57.2765 46.6139 56.951 47.1836 56.5213 47.6719C56.0916 48.1536 55.5643 48.528 54.9393 48.7949C54.3143 49.0618 53.5949 49.1953 52.7811 49.1953C51.9738 49.1953 51.2544 49.0618 50.6229 48.7949C49.9914 48.528 49.4608 48.1536 49.0311 47.6719C48.6014 47.1836 48.2759 46.6139 48.0545 45.9629C47.8332 45.3053 47.7225 44.5924 47.7225 43.8242ZM50.7791 43.6191V43.8242C50.7791 44.2409 50.8117 44.6315 50.8768 44.9961C50.9484 45.3607 51.0623 45.6797 51.2186 45.9531C51.3748 46.2266 51.5799 46.4414 51.8338 46.5977C52.0942 46.7474 52.41 46.8223 52.7811 46.8223C53.1522 46.8223 53.4647 46.7474 53.7186 46.5977C53.9725 46.4414 54.1776 46.2266 54.3338 45.9531C54.4901 45.6797 54.6008 45.3607 54.6659 44.9961C54.7375 44.6315 54.7733 44.2409 54.7733 43.8242V43.6191C54.7733 43.209 54.7375 42.8249 54.6659 42.4668C54.6008 42.1022 54.4901 41.7799 54.3338 41.5C54.1776 41.2201 53.9692 41.002 53.7088 40.8457C53.4549 40.6895 53.1392 40.6113 52.7616 40.6113C52.397 40.6113 52.0877 40.6895 51.8338 40.8457C51.5799 41.002 51.3748 41.2201 51.2186 41.5C51.0623 41.7799 50.9484 42.1022 50.8768 42.4668C50.8117 42.8249 50.7791 43.209 50.7791 43.6191ZM62.4881 40.8945V49H59.4413V38.4336H62.3026L62.4881 40.8945ZM65.6424 38.3555L65.5936 41.1973C65.4634 41.1777 65.2941 41.1615 65.0858 41.1484C64.8775 41.1289 64.6984 41.1191 64.5487 41.1191C64.1581 41.1191 63.8195 41.168 63.5331 41.2656C63.2531 41.3568 63.0187 41.4935 62.8299 41.6758C62.6476 41.8581 62.5109 42.0859 62.4198 42.3594C62.3286 42.6263 62.2831 42.9355 62.2831 43.2871L61.7069 43.0039C61.7069 42.3073 61.7752 41.6693 61.912 41.0898C62.0487 40.5104 62.2472 40.0091 62.5077 39.5859C62.7681 39.1562 63.0871 38.8242 63.4647 38.5898C63.8423 38.3555 64.272 38.2383 64.7538 38.2383C64.91 38.2383 65.0695 38.248 65.2323 38.2676C65.395 38.2871 65.5317 38.3164 65.6424 38.3555ZM77.4686 46.4805V41.9492C77.4686 41.6302 77.4198 41.3568 77.3221 41.1289C77.2245 40.901 77.0715 40.722 76.8631 40.5918C76.6548 40.4616 76.3846 40.3965 76.0526 40.3965C75.7726 40.3965 75.5285 40.4453 75.3202 40.543C75.1183 40.6406 74.9621 40.7806 74.8514 40.9629C74.7472 41.1452 74.6952 41.3698 74.6952 41.6367H71.6483C71.6483 41.1615 71.7557 40.7188 71.9706 40.3086C72.1854 39.8984 72.4914 39.5371 72.8885 39.2246C73.2922 38.9121 73.7739 38.6712 74.3338 38.502C74.8937 38.3262 75.522 38.2383 76.2186 38.2383C77.0454 38.2383 77.7811 38.3783 78.4256 38.6582C79.0767 38.9316 79.591 39.3451 79.9686 39.8984C80.3462 40.4453 80.535 41.1354 80.535 41.9688V46.3926C80.535 47.0306 80.5708 47.5319 80.6424 47.8965C80.7206 48.2546 80.8312 48.5671 80.9745 48.834V49H77.8983C77.7551 48.694 77.6476 48.3164 77.576 47.8672C77.5044 47.4115 77.4686 46.9492 77.4686 46.4805ZM77.8495 42.5547L77.869 44.2344H76.3553C76.0168 44.2344 75.7238 44.2767 75.4764 44.3613C75.2355 44.446 75.0402 44.5632 74.8905 44.7129C74.7407 44.8561 74.6301 45.0254 74.5584 45.2207C74.4933 45.4095 74.4608 45.6178 74.4608 45.8457C74.4608 46.0605 74.5129 46.2559 74.617 46.4316C74.7212 46.6009 74.8644 46.7344 75.0467 46.832C75.229 46.9297 75.4406 46.9785 75.6815 46.9785C76.0786 46.9785 76.4172 46.9004 76.6971 46.7441C76.9836 46.5879 77.2049 46.3991 77.3612 46.1777C77.5174 45.9499 77.5956 45.7383 77.5956 45.543L78.328 46.8125C78.2108 47.0729 78.0676 47.3431 77.8983 47.623C77.729 47.8965 77.5142 48.1536 77.2538 48.3945C76.9933 48.6289 76.6776 48.821 76.3065 48.9707C75.9419 49.1204 75.5025 49.1953 74.9881 49.1953C74.3241 49.1953 73.7219 49.0618 73.1815 48.7949C72.6411 48.5215 72.2082 48.1471 71.8827 47.6719C71.5636 47.1966 71.4041 46.6497 71.4041 46.0312C71.4041 45.4779 71.5051 44.9863 71.7069 44.5566C71.9087 44.127 72.2114 43.7624 72.6151 43.4629C73.0252 43.1634 73.5396 42.9388 74.1581 42.7891C74.7765 42.6328 75.4992 42.5547 76.326 42.5547H77.8495ZM85.7498 34V49H82.6932V34H85.7498ZM91.16 34V49H88.1034V34H91.16ZM104.099 44.0586H100.525V41.5879H104.099C104.627 41.5879 105.05 41.5 105.369 41.3242C105.695 41.1484 105.932 40.9076 106.082 40.6016C106.238 40.2891 106.316 39.9375 106.316 39.5469C106.316 39.1432 106.238 38.7689 106.082 38.4238C105.932 38.0723 105.695 37.7891 105.369 37.5742C105.05 37.3594 104.627 37.252 104.099 37.252H101.678V49H98.494V34.7812H104.099C105.232 34.7812 106.202 34.9863 107.01 35.3965C107.823 35.8066 108.445 36.3698 108.875 37.0859C109.311 37.7956 109.529 38.6094 109.529 39.5273C109.529 40.4453 109.311 41.2428 108.875 41.9199C108.445 42.597 107.823 43.1243 107.01 43.502C106.202 43.873 105.232 44.0586 104.099 44.0586ZM116.785 46.4805V41.9492C116.785 41.6302 116.736 41.3568 116.639 41.1289C116.541 40.901 116.388 40.722 116.18 40.5918C115.971 40.4616 115.701 40.3965 115.369 40.3965C115.089 40.3965 114.845 40.4453 114.637 40.543C114.435 40.6406 114.278 40.7806 114.168 40.9629C114.064 41.1452 114.012 41.3698 114.012 41.6367H110.965C110.965 41.1615 111.072 40.7188 111.287 40.3086C111.502 39.8984 111.808 39.5371 112.205 39.2246C112.609 38.9121 113.09 38.6712 113.65 38.502C114.21 38.3262 114.838 38.2383 115.535 38.2383C116.362 38.2383 117.098 38.3783 117.742 38.6582C118.393 38.9316 118.907 39.3451 119.285 39.8984C119.663 40.4453 119.851 41.1354 119.851 41.9688V46.3926C119.851 47.0306 119.887 47.5319 119.959 47.8965C120.037 48.2546 120.148 48.5671 120.291 48.834V49H117.215C117.071 48.694 116.964 48.3164 116.892 47.8672C116.821 47.4115 116.785 46.9492 116.785 46.4805ZM117.166 42.5547L117.185 44.2344H115.672C115.333 44.2344 115.04 44.2767 114.793 44.3613C114.552 44.446 114.357 44.5632 114.207 44.7129C114.057 44.8561 113.946 45.0254 113.875 45.2207C113.81 45.4095 113.777 45.6178 113.777 45.8457C113.777 46.0605 113.829 46.2559 113.933 46.4316C114.038 46.6009 114.181 46.7344 114.363 46.832C114.545 46.9297 114.757 46.9785 114.998 46.9785C115.395 46.9785 115.734 46.9004 116.014 46.7441C116.3 46.5879 116.521 46.3991 116.678 46.1777C116.834 45.9499 116.912 45.7383 116.912 45.543L117.644 46.8125C117.527 47.0729 117.384 47.3431 117.215 47.623C117.045 47.8965 116.831 48.1536 116.57 48.3945C116.31 48.6289 115.994 48.821 115.623 48.9707C115.258 49.1204 114.819 49.1953 114.305 49.1953C113.64 49.1953 113.038 49.0618 112.498 48.7949C111.958 48.5215 111.525 48.1471 111.199 47.6719C110.88 47.1966 110.721 46.6497 110.721 46.0312C110.721 45.4779 110.821 44.9863 111.023 44.5566C111.225 44.127 111.528 43.7624 111.931 43.4629C112.342 43.1634 112.856 42.9388 113.474 42.7891C114.093 42.6328 114.816 42.5547 115.642 42.5547H117.166ZM124.91 40.8945V49H121.863V38.4336H124.724L124.91 40.8945ZM128.064 38.3555L128.015 41.1973C127.885 41.1777 127.716 41.1615 127.508 41.1484C127.299 41.1289 127.12 41.1191 126.971 41.1191C126.58 41.1191 126.241 41.168 125.955 41.2656C125.675 41.3568 125.441 41.4935 125.252 41.6758C125.07 41.8581 124.933 42.0859 124.842 42.3594C124.75 42.6263 124.705 42.9355 124.705 43.2871L124.129 43.0039C124.129 42.3073 124.197 41.6693 124.334 41.0898C124.471 40.5104 124.669 40.0091 124.93 39.5859C125.19 39.1562 125.509 38.8242 125.887 38.5898C126.264 38.3555 126.694 38.2383 127.176 38.2383C127.332 38.2383 127.491 38.248 127.654 38.2676C127.817 38.2871 127.954 38.3164 128.064 38.3555ZM135.174 38.4336V40.5723H128.904V38.4336H135.174ZM130.34 35.8164H133.396V45.6895C133.396 45.9824 133.432 46.207 133.504 46.3633C133.575 46.5195 133.693 46.6302 133.855 46.6953C134.018 46.7539 134.226 46.7832 134.48 46.7832C134.663 46.7832 134.819 46.7767 134.949 46.7637C135.079 46.7507 135.2 46.7344 135.31 46.7148V48.9219C135.05 49.0065 134.773 49.0716 134.48 49.1172C134.187 49.1693 133.868 49.1953 133.523 49.1953C132.866 49.1953 132.296 49.0879 131.814 48.873C131.339 48.6582 130.974 48.3197 130.721 47.8574C130.467 47.3887 130.34 46.7799 130.34 46.0312V35.8164ZM139.851 38.4336V49H136.795V38.4336H139.851ZM136.609 35.6992C136.609 35.2565 136.765 34.8952 137.078 34.6152C137.39 34.3288 137.801 34.1855 138.308 34.1855C138.816 34.1855 139.226 34.3288 139.539 34.6152C139.858 34.8952 140.017 35.2565 140.017 35.6992C140.017 36.1354 139.858 36.4967 139.539 36.7832C139.226 37.0632 138.816 37.2031 138.308 37.2031C137.801 37.2031 137.39 37.0632 137.078 36.7832C136.765 36.4967 136.609 36.1354 136.609 35.6992ZM146.463 46.8223C146.788 46.8223 147.071 46.7604 147.312 46.6367C147.553 46.513 147.739 46.3405 147.869 46.1191C148.006 45.8913 148.074 45.6178 148.074 45.2988H150.945C150.945 46.0671 150.747 46.7441 150.349 47.3301C149.959 47.916 149.431 48.375 148.767 48.707C148.103 49.0326 147.355 49.1953 146.521 49.1953C145.701 49.1953 144.985 49.0618 144.373 48.7949C143.761 48.5215 143.25 48.1406 142.84 47.6523C142.43 47.1641 142.12 46.5977 141.912 45.9531C141.71 45.3021 141.609 44.599 141.609 43.8438V43.5898C141.609 42.8411 141.71 42.1413 141.912 41.4902C142.12 40.8392 142.43 40.2695 142.84 39.7812C143.25 39.293 143.758 38.9154 144.363 38.6484C144.975 38.375 145.691 38.2383 146.512 38.2383C147.377 38.2383 148.142 38.4043 148.806 38.7363C149.477 39.0684 150.001 39.5469 150.379 40.1719C150.756 40.7904 150.945 41.5358 150.945 42.4082H148.074C148.074 42.0697 148.012 41.7669 147.889 41.5C147.771 41.2266 147.589 41.0117 147.342 40.8555C147.101 40.6927 146.801 40.6113 146.443 40.6113C146.072 40.6113 145.766 40.6927 145.525 40.8555C145.291 41.0117 145.112 41.2298 144.988 41.5098C144.864 41.7897 144.78 42.1087 144.734 42.4668C144.689 42.8184 144.666 43.1927 144.666 43.5898V43.8438C144.666 44.2474 144.689 44.6315 144.734 44.9961C144.78 45.3542 144.864 45.6699 144.988 45.9434C145.118 46.2168 145.301 46.4316 145.535 46.5879C145.769 46.7441 146.079 46.8223 146.463 46.8223ZM155.672 38.4336V49H152.615V38.4336H155.672ZM152.43 35.6992C152.43 35.2565 152.586 34.8952 152.898 34.6152C153.211 34.3288 153.621 34.1855 154.129 34.1855C154.637 34.1855 155.047 34.3288 155.359 34.6152C155.678 34.8952 155.838 35.2565 155.838 35.6992C155.838 36.1354 155.678 36.4967 155.359 36.7832C155.047 37.0632 154.637 37.2031 154.129 37.2031C153.621 37.2031 153.211 37.0632 152.898 36.7832C152.586 36.4967 152.43 36.1354 152.43 35.6992ZM160.926 40.4648V53.0625H157.879V38.4336H160.721L160.926 40.4648ZM167.517 43.5996V43.8047C167.517 44.5729 167.43 45.2858 167.254 45.9434C167.078 46.5944 166.814 47.1641 166.463 47.6523C166.118 48.1406 165.691 48.5215 165.183 48.7949C164.676 49.0618 164.086 49.1953 163.416 49.1953C162.778 49.1953 162.224 49.0618 161.756 48.7949C161.293 48.5215 160.903 48.1439 160.584 47.6621C160.271 47.1738 160.017 46.6172 159.822 45.9922C159.633 45.3607 159.487 44.6868 159.383 43.9707V43.5703C159.487 42.8086 159.637 42.1022 159.832 41.4512C160.027 40.8001 160.281 40.237 160.594 39.7617C160.906 39.2799 161.293 38.9056 161.756 38.6387C162.218 38.3717 162.768 38.2383 163.406 38.2383C164.07 38.2383 164.659 38.3652 165.174 38.6191C165.688 38.873 166.118 39.2376 166.463 39.7129C166.814 40.1816 167.078 40.7448 167.254 41.4023C167.43 42.0599 167.517 42.7923 167.517 43.5996ZM164.461 43.8047V43.5996C164.461 43.1699 164.428 42.776 164.363 42.418C164.298 42.0534 164.194 41.7376 164.051 41.4707C163.907 41.1973 163.719 40.9857 163.484 40.8359C163.25 40.6862 162.963 40.6113 162.625 40.6113C162.26 40.6113 161.951 40.6699 161.697 40.7871C161.443 40.9043 161.238 41.0768 161.082 41.3047C160.926 41.526 160.812 41.7995 160.74 42.125C160.675 42.4505 160.639 42.8216 160.633 43.2383V44.3125C160.639 44.8008 160.708 45.237 160.838 45.6211C160.974 45.9987 161.186 46.2949 161.473 46.5098C161.765 46.7181 162.156 46.8223 162.644 46.8223C162.989 46.8223 163.276 46.7474 163.504 46.5977C163.738 46.4414 163.924 46.2233 164.06 45.9434C164.204 45.6634 164.305 45.3411 164.363 44.9766C164.428 44.612 164.461 44.2214 164.461 43.8047ZM174.734 46.4805V41.9492C174.734 41.6302 174.685 41.3568 174.588 41.1289C174.49 40.901 174.337 40.722 174.129 40.5918C173.92 40.4616 173.65 40.3965 173.318 40.3965C173.038 40.3965 172.794 40.4453 172.586 40.543C172.384 40.6406 172.228 40.7806 172.117 40.9629C172.013 41.1452 171.961 41.3698 171.961 41.6367H168.914C168.914 41.1615 169.021 40.7188 169.236 40.3086C169.451 39.8984 169.757 39.5371 170.154 39.2246C170.558 38.9121 171.04 38.6712 171.599 38.502C172.159 38.3262 172.788 38.2383 173.484 38.2383C174.311 38.2383 175.047 38.3783 175.691 38.6582C176.342 38.9316 176.857 39.3451 177.234 39.8984C177.612 40.4453 177.801 41.1354 177.801 41.9688V46.3926C177.801 47.0306 177.836 47.5319 177.908 47.8965C177.986 48.2546 178.097 48.5671 178.24 48.834V49H175.164C175.021 48.694 174.913 48.3164 174.842 47.8672C174.77 47.4115 174.734 46.9492 174.734 46.4805ZM175.115 42.5547L175.135 44.2344H173.621C173.282 44.2344 172.989 44.2767 172.742 44.3613C172.501 44.446 172.306 44.5632 172.156 44.7129C172.006 44.8561 171.896 45.0254 171.824 45.2207C171.759 45.4095 171.726 45.6178 171.726 45.8457C171.726 46.0605 171.778 46.2559 171.883 46.4316C171.987 46.6009 172.13 46.7344 172.312 46.832C172.495 46.9297 172.706 46.9785 172.947 46.9785C173.344 46.9785 173.683 46.9004 173.963 46.7441C174.249 46.5879 174.471 46.3991 174.627 46.1777C174.783 45.9499 174.861 45.7383 174.861 45.543L175.594 46.8125C175.476 47.0729 175.333 47.3431 175.164 47.623C174.995 47.8965 174.78 48.1536 174.519 48.3945C174.259 48.6289 173.943 48.821 173.572 48.9707C173.208 49.1204 172.768 49.1953 172.254 49.1953C171.59 49.1953 170.987 49.0618 170.447 48.7949C169.907 48.5215 169.474 48.1471 169.148 47.6719C168.829 47.1966 168.67 46.6497 168.67 46.0312C168.67 45.4779 168.771 44.9863 168.973 44.5566C169.174 44.127 169.477 43.7624 169.881 43.4629C170.291 43.1634 170.805 42.9388 171.424 42.7891C172.042 42.6328 172.765 42.5547 173.592 42.5547H175.115ZM182.791 40.6895V49H179.734V38.4336H182.605L182.791 40.6895ZM182.39 43.3457L181.629 43.3652C181.629 42.571 181.726 41.8581 181.922 41.2266C182.117 40.5951 182.394 40.0579 182.752 39.6152C183.116 39.166 183.549 38.8242 184.051 38.5898C184.558 38.3555 185.118 38.2383 185.73 38.2383C186.225 38.2383 186.678 38.3099 187.088 38.4531C187.498 38.5964 187.849 38.8275 188.142 39.1465C188.442 39.459 188.67 39.8757 188.826 40.3965C188.982 40.9108 189.06 41.5456 189.06 42.3008V49H185.994V42.291C185.994 41.8483 185.932 41.5065 185.808 41.2656C185.685 41.0247 185.502 40.8555 185.262 40.7578C185.027 40.6602 184.741 40.6113 184.402 40.6113C184.044 40.6113 183.738 40.6829 183.484 40.8262C183.23 40.9629 183.022 41.1549 182.859 41.4023C182.696 41.6497 182.576 41.9395 182.498 42.2715C182.426 42.6035 182.39 42.9616 182.39 43.3457ZM196.424 38.4336V40.5723H190.154V38.4336H196.424ZM191.59 35.8164H194.646V45.6895C194.646 45.9824 194.682 46.207 194.754 46.3633C194.825 46.5195 194.943 46.6302 195.105 46.6953C195.268 46.7539 195.476 46.7832 195.73 46.7832C195.913 46.7832 196.069 46.7767 196.199 46.7637C196.329 46.7507 196.45 46.7344 196.56 46.7148V48.9219C196.3 49.0065 196.023 49.0716 195.73 49.1172C195.437 49.1693 195.118 49.1953 194.773 49.1953C194.116 49.1953 193.546 49.0879 193.064 48.873C192.589 48.6582 192.224 48.3197 191.971 47.8574C191.717 47.3887 191.59 46.7799 191.59 46.0312V35.8164ZM203.514 46.0605C203.514 45.8652 203.452 45.6927 203.328 45.543C203.211 45.3932 202.996 45.2565 202.683 45.1328C202.377 45.0091 201.945 44.8854 201.385 44.7617C200.857 44.651 200.366 44.5078 199.91 44.332C199.454 44.1497 199.057 43.9316 198.719 43.6777C198.38 43.4173 198.116 43.1113 197.928 42.7598C197.739 42.4017 197.644 41.9948 197.644 41.5391C197.644 41.0964 197.739 40.6764 197.928 40.2793C198.123 39.8822 198.403 39.5306 198.767 39.2246C199.139 38.9186 199.588 38.6777 200.115 38.502C200.649 38.3262 201.254 38.2383 201.931 38.2383C202.862 38.2383 203.667 38.3848 204.344 38.6777C205.021 38.9642 205.542 39.3678 205.906 39.8887C206.271 40.403 206.453 40.9922 206.453 41.6562H203.406C203.406 41.3828 203.354 41.1452 203.25 40.9434C203.146 40.7415 202.986 40.5853 202.771 40.4746C202.556 40.3574 202.273 40.2988 201.922 40.2988C201.648 40.2988 201.407 40.3477 201.199 40.4453C200.997 40.5365 200.838 40.6634 200.721 40.8262C200.61 40.9889 200.555 41.1777 200.555 41.3926C200.555 41.5423 200.587 41.679 200.652 41.8027C200.724 41.9199 200.831 42.0306 200.974 42.1348C201.124 42.2324 201.316 42.3203 201.551 42.3984C201.792 42.4766 202.084 42.5514 202.43 42.623C203.165 42.7598 203.836 42.9518 204.441 43.1992C205.053 43.4466 205.542 43.7884 205.906 44.2246C206.277 44.6608 206.463 45.237 206.463 45.9531C206.463 46.4219 206.355 46.8516 206.14 47.2422C205.932 47.6328 205.629 47.9746 205.232 48.2676C204.835 48.5605 204.36 48.7884 203.806 48.9512C203.253 49.1139 202.628 49.1953 201.931 49.1953C200.935 49.1953 200.092 49.0163 199.402 48.6582C198.712 48.3001 198.191 47.8509 197.84 47.3105C197.495 46.7637 197.322 46.2038 197.322 45.6309H200.183C200.196 45.9824 200.284 46.2689 200.447 46.4902C200.616 46.7116 200.834 46.8743 201.101 46.9785C201.368 47.0762 201.668 47.125 202 47.125C202.332 47.125 202.609 47.0794 202.83 46.9883C203.051 46.8971 203.221 46.7734 203.338 46.6172C203.455 46.4544 203.514 46.2689 203.514 46.0605Z" fill="black"/>
<defs>
<linearGradient id="paint0_linear_107_17" x1="0" y1="0" x2="250" y2="2.45625e-06" gradientUnits="userSpaceOnUse">
<stop stop-color="#E1AA1F"/>
<stop offset="0.401208" stop-color="#D9C82E"/>
<stop offset="0.969675" stop-color="#F3BC30"/>
</linearGradient>
</defs>
</svg>
