<svg width="250" height="62" viewBox="0 0 250 62" fill="none" xmlns="http://www.w3.org/2000/svg">
<rect width="250" height="62" rx="31" fill="url(#paint0_linear_108_23)"/>
<path d="M99.1874 18.4902V24.2227C98.953 24.4896 98.5949 24.776 98.1131 25.082C97.6379 25.388 97.0292 25.6517 96.287 25.873C95.5448 26.0879 94.6594 26.1953 93.6307 26.1953C92.6997 26.1953 91.8534 26.0456 91.0917 25.7461C90.3299 25.4401 89.6756 24.9941 89.1288 24.4082C88.5819 23.8158 88.1587 23.0931 87.8592 22.2402C87.5663 21.3874 87.4198 20.4108 87.4198 19.3105V18.4707C87.4198 17.3704 87.5663 16.3939 87.8592 15.541C88.1522 14.6882 88.5656 13.9688 89.0995 13.3828C89.6333 12.7904 90.2681 12.3411 91.0038 12.0352C91.7394 11.7292 92.5532 11.5762 93.4452 11.5762C94.7147 11.5762 95.7531 11.7812 96.5604 12.1914C97.3677 12.5951 97.9797 13.1549 98.3963 13.8711C98.8195 14.5872 99.0799 15.4108 99.1776 16.3418H96.1112C96.0461 15.8665 95.9159 15.4564 95.7206 15.1113C95.5318 14.7663 95.2616 14.5026 94.91 14.3203C94.5585 14.1315 94.1027 14.0371 93.5428 14.0371C93.0936 14.0371 92.6867 14.1315 92.3221 14.3203C91.9641 14.5026 91.6613 14.7793 91.4139 15.1504C91.1665 15.5215 90.9777 15.9837 90.8475 16.5371C90.7173 17.084 90.6522 17.722 90.6522 18.4512V19.3105C90.6522 20.0397 90.7173 20.681 90.8475 21.2344C90.9842 21.7878 91.1828 22.25 91.4432 22.6211C91.7036 22.9857 92.0324 23.2624 92.4296 23.4512C92.8332 23.64 93.3019 23.7344 93.8358 23.7344C94.2525 23.7344 94.604 23.7018 94.8905 23.6367C95.1769 23.5651 95.4113 23.4772 95.5936 23.373C95.7759 23.2624 95.9126 23.1615 96.0038 23.0703V20.707H93.4745V18.4902H99.1874ZM100.769 20.8242V20.6191C100.769 19.8444 100.88 19.1315 101.101 18.4805C101.323 17.8229 101.648 17.2533 102.078 16.7715C102.508 16.2897 103.035 15.9154 103.66 15.6484C104.285 15.375 105.001 15.2383 105.808 15.2383C106.629 15.2383 107.351 15.375 107.976 15.6484C108.608 15.9154 109.139 16.2897 109.568 16.7715C109.998 17.2533 110.323 17.8229 110.545 18.4805C110.766 19.1315 110.877 19.8444 110.877 20.6191V20.8242C110.877 21.5924 110.766 22.3053 110.545 22.9629C110.323 23.6139 109.998 24.1836 109.568 24.6719C109.139 25.1536 108.611 25.528 107.986 25.7949C107.361 26.0618 106.642 26.1953 105.828 26.1953C105.021 26.1953 104.301 26.0618 103.67 25.7949C103.038 25.528 102.508 25.1536 102.078 24.6719C101.648 24.1836 101.323 23.6139 101.101 22.9629C100.88 22.3053 100.769 21.5924 100.769 20.8242ZM103.826 20.6191V20.8242C103.826 21.2409 103.859 21.6315 103.924 21.9961C103.995 22.3607 104.109 22.6797 104.265 22.9531C104.422 23.2266 104.627 23.4414 104.881 23.5977C105.141 23.7474 105.457 23.8223 105.828 23.8223C106.199 23.8223 106.512 23.7474 106.765 23.5977C107.019 23.4414 107.224 23.2266 107.381 22.9531C107.537 22.6797 107.648 22.3607 107.713 21.9961C107.784 21.6315 107.82 21.2409 107.82 20.8242V20.6191C107.82 20.209 107.784 19.8249 107.713 19.4668C107.648 19.1022 107.537 18.7799 107.381 18.5C107.224 18.2201 107.016 18.002 106.756 17.8457C106.502 17.6895 106.186 17.6113 105.808 17.6113C105.444 17.6113 105.135 17.6895 104.881 17.8457C104.627 18.002 104.422 18.2201 104.265 18.5C104.109 18.7799 103.995 19.1022 103.924 19.4668C103.859 19.8249 103.826 20.209 103.826 20.6191ZM112.039 20.8242V20.6191C112.039 19.8444 112.15 19.1315 112.371 18.4805C112.592 17.8229 112.918 17.2533 113.348 16.7715C113.777 16.2897 114.305 15.9154 114.93 15.6484C115.555 15.375 116.271 15.2383 117.078 15.2383C117.898 15.2383 118.621 15.375 119.246 15.6484C119.877 15.9154 120.408 16.2897 120.838 16.7715C121.267 17.2533 121.593 17.8229 121.814 18.4805C122.036 19.1315 122.146 19.8444 122.146 20.6191V20.8242C122.146 21.5924 122.036 22.3053 121.814 22.9629C121.593 23.6139 121.267 24.1836 120.838 24.6719C120.408 25.1536 119.881 25.528 119.256 25.7949C118.631 26.0618 117.911 26.1953 117.098 26.1953C116.29 26.1953 115.571 26.0618 114.939 25.7949C114.308 25.528 113.777 25.1536 113.348 24.6719C112.918 24.1836 112.592 23.6139 112.371 22.9629C112.15 22.3053 112.039 21.5924 112.039 20.8242ZM115.096 20.6191V20.8242C115.096 21.2409 115.128 21.6315 115.193 21.9961C115.265 22.3607 115.379 22.6797 115.535 22.9531C115.691 23.2266 115.896 23.4414 116.15 23.5977C116.411 23.7474 116.726 23.8223 117.098 23.8223C117.469 23.8223 117.781 23.7474 118.035 23.5977C118.289 23.4414 118.494 23.2266 118.65 22.9531C118.807 22.6797 118.917 22.3607 118.982 21.9961C119.054 21.6315 119.09 21.2409 119.09 20.8242V20.6191C119.09 20.209 119.054 19.8249 118.982 19.4668C118.917 19.1022 118.807 18.7799 118.65 18.5C118.494 18.2201 118.286 18.002 118.025 17.8457C117.771 17.6895 117.456 17.6113 117.078 17.6113C116.713 17.6113 116.404 17.6895 116.15 17.8457C115.896 18.002 115.691 18.2201 115.535 18.5C115.379 18.7799 115.265 19.1022 115.193 19.4668C115.128 19.8249 115.096 20.209 115.096 20.6191ZM129.9 23.6367V11H132.967V26H130.213L129.9 23.6367ZM123.318 20.8438V20.6387C123.318 19.8379 123.406 19.1087 123.582 18.4512C123.764 17.7871 124.028 17.2174 124.373 16.7422C124.724 16.2604 125.157 15.8893 125.672 15.6289C126.186 15.3685 126.775 15.2383 127.439 15.2383C128.051 15.2383 128.585 15.375 129.041 15.6484C129.497 15.9154 129.884 16.293 130.203 16.7812C130.529 17.263 130.792 17.8327 130.994 18.4902C131.196 19.1413 131.349 19.8477 131.453 20.6094V20.9609C131.355 21.6901 131.202 22.3704 130.994 23.002C130.792 23.6335 130.529 24.1901 130.203 24.6719C129.884 25.1471 129.493 25.5215 129.031 25.7949C128.575 26.0618 128.038 26.1953 127.42 26.1953C126.756 26.1953 126.167 26.0618 125.652 25.7949C125.144 25.528 124.718 25.1536 124.373 24.6719C124.028 24.1901 123.764 23.6237 123.582 22.9727C123.406 22.3216 123.318 21.612 123.318 20.8438ZM126.365 20.6387V20.8438C126.365 21.2604 126.394 21.6478 126.453 22.0059C126.518 22.3639 126.622 22.6797 126.765 22.9531C126.909 23.2266 127.098 23.4414 127.332 23.5977C127.566 23.7474 127.853 23.8223 128.191 23.8223C128.647 23.8223 129.021 23.7181 129.314 23.5098C129.607 23.2949 129.829 22.9987 129.978 22.6211C130.128 22.2435 130.206 21.804 130.213 21.3027V20.2773C130.213 19.8607 130.17 19.4863 130.086 19.1543C130.001 18.8223 129.874 18.5423 129.705 18.3145C129.542 18.0866 129.337 17.9141 129.09 17.7969C128.842 17.6732 128.549 17.6113 128.211 17.6113C127.879 17.6113 127.596 17.6895 127.361 17.8457C127.127 17.9954 126.935 18.207 126.785 18.4805C126.642 18.7539 126.534 19.0762 126.463 19.4473C126.398 19.8118 126.365 20.209 126.365 20.6387ZM138.211 15.4336V26H135.154V15.4336H138.211ZM134.969 12.6992C134.969 12.2565 135.125 11.8952 135.437 11.6152C135.75 11.3288 136.16 11.1855 136.668 11.1855C137.176 11.1855 137.586 11.3288 137.898 11.6152C138.217 11.8952 138.377 12.2565 138.377 12.6992C138.377 13.1354 138.217 13.4967 137.898 13.7832C137.586 14.0632 137.176 14.2031 136.668 14.2031C136.16 14.2031 135.75 14.0632 135.437 13.7832C135.125 13.4967 134.969 13.1354 134.969 12.6992ZM145.389 26.1953C144.549 26.1953 143.797 26.0618 143.133 25.7949C142.469 25.528 141.905 25.1602 141.443 24.6914C140.987 24.2161 140.639 23.6693 140.398 23.0508C140.157 22.4323 140.037 21.7715 140.037 21.0684V20.6973C140.037 19.9095 140.148 19.1836 140.369 18.5195C140.59 17.8555 140.913 17.2793 141.336 16.791C141.765 16.2962 142.293 15.9154 142.918 15.6484C143.543 15.375 144.256 15.2383 145.057 15.2383C145.805 15.2383 146.473 15.362 147.058 15.6094C147.644 15.8503 148.139 16.1986 148.543 16.6543C148.946 17.1035 149.252 17.6471 149.461 18.2852C149.676 18.9167 149.783 19.6263 149.783 20.4141V21.6641H141.267V19.7012H146.795V19.4668C146.795 19.0957 146.726 18.7702 146.59 18.4902C146.459 18.2103 146.264 17.9954 146.004 17.8457C145.75 17.6895 145.428 17.6113 145.037 17.6113C144.666 17.6113 144.357 17.6895 144.109 17.8457C143.862 18.002 143.663 18.2233 143.514 18.5098C143.37 18.7897 143.266 19.1185 143.201 19.4961C143.136 19.8672 143.103 20.2676 143.103 20.6973V21.0684C143.103 21.4785 143.159 21.8529 143.269 22.1914C143.38 22.5299 143.543 22.8197 143.758 23.0605C143.973 23.3014 144.233 23.4902 144.539 23.627C144.845 23.7637 145.193 23.832 145.584 23.832C146.066 23.832 146.525 23.7409 146.961 23.5586C147.397 23.3698 147.775 23.0768 148.094 22.6797L149.519 24.3105C149.305 24.623 149.002 24.9258 148.611 25.2188C148.227 25.5052 147.765 25.7396 147.224 25.9219C146.684 26.1042 146.072 26.1953 145.389 26.1953ZM156.892 23.0605C156.892 22.8652 156.831 22.6927 156.707 22.543C156.59 22.3932 156.375 22.2565 156.062 22.1328C155.756 22.0091 155.323 21.8854 154.764 21.7617C154.236 21.651 153.745 21.5078 153.289 21.332C152.833 21.1497 152.436 20.9316 152.098 20.6777C151.759 20.4173 151.495 20.1113 151.307 19.7598C151.118 19.4017 151.023 18.9948 151.023 18.5391C151.023 18.0964 151.118 17.6764 151.307 17.2793C151.502 16.8822 151.782 16.5306 152.146 16.2246C152.517 15.9186 152.967 15.6777 153.494 15.502C154.028 15.3262 154.633 15.2383 155.31 15.2383C156.241 15.2383 157.045 15.3848 157.723 15.6777C158.4 15.9642 158.92 16.3678 159.285 16.8887C159.65 17.403 159.832 17.9922 159.832 18.6562H156.785C156.785 18.3828 156.733 18.1452 156.629 17.9434C156.525 17.7415 156.365 17.5853 156.15 17.4746C155.935 17.3574 155.652 17.2988 155.301 17.2988C155.027 17.2988 154.786 17.3477 154.578 17.4453C154.376 17.5365 154.217 17.6634 154.099 17.8262C153.989 17.9889 153.933 18.1777 153.933 18.3926C153.933 18.5423 153.966 18.679 154.031 18.8027C154.103 18.9199 154.21 19.0306 154.353 19.1348C154.503 19.2324 154.695 19.3203 154.93 19.3984C155.17 19.4766 155.463 19.5514 155.808 19.623C156.544 19.7598 157.215 19.9518 157.82 20.1992C158.432 20.4466 158.92 20.7884 159.285 21.2246C159.656 21.6608 159.842 22.237 159.842 22.9531C159.842 23.4219 159.734 23.8516 159.519 24.2422C159.311 24.6328 159.008 24.9746 158.611 25.2676C158.214 25.5605 157.739 25.7884 157.185 25.9512C156.632 26.1139 156.007 26.1953 155.31 26.1953C154.314 26.1953 153.471 26.0163 152.781 25.6582C152.091 25.3001 151.57 24.8509 151.219 24.3105C150.874 23.7637 150.701 23.2038 150.701 22.6309H153.562C153.575 22.9824 153.663 23.2689 153.826 23.4902C153.995 23.7116 154.213 23.8743 154.48 23.9785C154.747 24.0762 155.047 24.125 155.379 24.125C155.711 24.125 155.987 24.0794 156.209 23.9883C156.43 23.8971 156.599 23.7734 156.717 23.6172C156.834 23.4544 156.892 23.2689 156.892 23.0605ZM42.3221 49H39.2557V37.5352C39.2557 36.7214 39.4152 36.0378 39.7342 35.4844C40.0598 34.931 40.5187 34.5111 41.1112 34.2246C41.7036 33.9382 42.4035 33.7949 43.2108 33.7949C43.4907 33.7949 43.7512 33.8145 43.9921 33.8535C44.2394 33.8861 44.4803 33.9316 44.7147 33.9902V36.2656C44.591 36.2331 44.4641 36.2103 44.3338 36.1973C44.2036 36.1842 44.0474 36.1777 43.8651 36.1777C43.5396 36.1777 43.2596 36.2298 43.0253 36.334C42.7974 36.4316 42.6216 36.5846 42.4979 36.793C42.3807 36.9948 42.3221 37.2422 42.3221 37.5352V49ZM44.412 38.4336V40.5723H37.7128V38.4336H44.412ZM45.2909 43.8242V43.6191C45.2909 42.8444 45.4016 42.1315 45.6229 41.4805C45.8443 40.8229 46.1698 40.2533 46.5995 39.7715C47.0292 39.2897 47.5565 38.9154 48.1815 38.6484C48.8065 38.375 49.5226 38.2383 50.3299 38.2383C51.1503 38.2383 51.8729 38.375 52.4979 38.6484C53.1294 38.9154 53.66 39.2897 54.0897 39.7715C54.5194 40.2533 54.8449 40.8229 55.0663 41.4805C55.2876 42.1315 55.3983 42.8444 55.3983 43.6191V43.8242C55.3983 44.5924 55.2876 45.3053 55.0663 45.9629C54.8449 46.6139 54.5194 47.1836 54.0897 47.6719C53.66 48.1536 53.1327 48.528 52.5077 48.7949C51.8827 49.0618 51.1633 49.1953 50.3495 49.1953C49.5422 49.1953 48.8228 49.0618 48.1913 48.7949C47.5598 48.528 47.0292 48.1536 46.5995 47.6719C46.1698 47.1836 45.8443 46.6139 45.6229 45.9629C45.4016 45.3053 45.2909 44.5924 45.2909 43.8242ZM48.3475 43.6191V43.8242C48.3475 44.2409 48.3801 44.6315 48.4452 44.9961C48.5168 45.3607 48.6307 45.6797 48.787 45.9531C48.9432 46.2266 49.1483 46.4414 49.4022 46.5977C49.6626 46.7474 49.9784 46.8223 50.3495 46.8223C50.7206 46.8223 51.0331 46.7474 51.287 46.5977C51.5409 46.4414 51.746 46.2266 51.9022 45.9531C52.0585 45.6797 52.1691 45.3607 52.2342 44.9961C52.3059 44.6315 52.3417 44.2409 52.3417 43.8242V43.6191C52.3417 43.209 52.3059 42.8249 52.2342 42.4668C52.1691 42.1022 52.0585 41.7799 51.9022 41.5C51.746 41.2201 51.5376 41.002 51.2772 40.8457C51.0233 40.6895 50.7075 40.6113 50.3299 40.6113C49.9654 40.6113 49.6561 40.6895 49.4022 40.8457C49.1483 41.002 48.9432 41.2201 48.787 41.5C48.6307 41.7799 48.5168 42.1022 48.4452 42.4668C48.3801 42.8249 48.3475 43.209 48.3475 43.6191ZM60.0565 40.8945V49H57.0096V38.4336H59.871L60.0565 40.8945ZM63.2108 38.3555L63.162 41.1973C63.0318 41.1777 62.8625 41.1615 62.6542 41.1484C62.4458 41.1289 62.2668 41.1191 62.1171 41.1191C61.7264 41.1191 61.3879 41.168 61.1014 41.2656C60.8215 41.3568 60.5871 41.4935 60.3983 41.6758C60.216 41.8581 60.0793 42.0859 59.9881 42.3594C59.897 42.6263 59.8514 42.9355 59.8514 43.2871L59.2753 43.0039C59.2753 42.3073 59.3436 41.6693 59.4803 41.0898C59.6171 40.5104 59.8156 40.0091 60.076 39.5859C60.3365 39.1562 60.6555 38.8242 61.0331 38.5898C61.4107 38.3555 61.8404 38.2383 62.3221 38.2383C62.4784 38.2383 62.6379 38.248 62.8006 38.2676C62.9634 38.2871 63.1001 38.3164 63.2108 38.3555ZM75.6717 34.7812V49H72.4979V34.7812H75.6717ZM79.9979 34.7812V37.252H68.2596V34.7812H79.9979ZM79.0995 43.8242V43.6191C79.0995 42.8444 79.2101 42.1315 79.4315 41.4805C79.6529 40.8229 79.9784 40.2533 80.4081 39.7715C80.8378 39.2897 81.3651 38.9154 81.9901 38.6484C82.6151 38.375 83.3312 38.2383 84.1385 38.2383C84.9588 38.2383 85.6815 38.375 86.3065 38.6484C86.938 38.9154 87.4686 39.2897 87.8983 39.7715C88.328 40.2533 88.6535 40.8229 88.8749 41.4805C89.0962 42.1315 89.2069 42.8444 89.2069 43.6191V43.8242C89.2069 44.5924 89.0962 45.3053 88.8749 45.9629C88.6535 46.6139 88.328 47.1836 87.8983 47.6719C87.4686 48.1536 86.9413 48.528 86.3163 48.7949C85.6913 49.0618 84.9719 49.1953 84.1581 49.1953C83.3508 49.1953 82.6314 49.0618 81.9999 48.7949C81.3684 48.528 80.8378 48.1536 80.4081 47.6719C79.9784 47.1836 79.6529 46.6139 79.4315 45.9629C79.2101 45.3053 79.0995 44.5924 79.0995 43.8242ZM82.1561 43.6191V43.8242C82.1561 44.2409 82.1887 44.6315 82.2538 44.9961C82.3254 45.3607 82.4393 45.6797 82.5956 45.9531C82.7518 46.2266 82.9569 46.4414 83.2108 46.5977C83.4712 46.7474 83.787 46.8223 84.1581 46.8223C84.5292 46.8223 84.8417 46.7474 85.0956 46.5977C85.3495 46.4414 85.5546 46.2266 85.7108 45.9531C85.8671 45.6797 85.9777 45.3607 86.0428 44.9961C86.1144 44.6315 86.1503 44.2409 86.1503 43.8242V43.6191C86.1503 43.209 86.1144 42.8249 86.0428 42.4668C85.9777 42.1022 85.8671 41.7799 85.7108 41.5C85.5546 41.2201 85.3462 41.002 85.0858 40.8457C84.8319 40.6895 84.5161 40.6113 84.1385 40.6113C83.774 40.6113 83.4647 40.6895 83.2108 40.8457C82.9569 41.002 82.7518 41.2201 82.5956 41.5C82.4393 41.7799 82.3254 42.1022 82.2538 42.4668C82.1887 42.8249 82.1561 43.209 82.1561 43.6191ZM93.8651 40.4648V53.0625H90.8182V38.4336H93.66L93.8651 40.4648ZM100.457 43.5996V43.8047C100.457 44.5729 100.369 45.2858 100.193 45.9434C100.017 46.5944 99.7538 47.1641 99.4022 47.6523C99.0572 48.1406 98.6307 48.5215 98.1229 48.7949C97.6151 49.0618 97.0259 49.1953 96.3553 49.1953C95.7173 49.1953 95.1639 49.0618 94.6952 48.7949C94.2329 48.5215 93.8423 48.1439 93.5233 47.6621C93.2108 47.1738 92.9569 46.6172 92.7616 45.9922C92.5728 45.3607 92.4263 44.6868 92.3221 43.9707V43.5703C92.4263 42.8086 92.576 42.1022 92.7713 41.4512C92.9667 40.8001 93.2206 40.237 93.5331 39.7617C93.8456 39.2799 94.2329 38.9056 94.6952 38.6387C95.1574 38.3717 95.7075 38.2383 96.3456 38.2383C97.0096 38.2383 97.5988 38.3652 98.1131 38.6191C98.6275 38.873 99.0572 39.2376 99.4022 39.7129C99.7538 40.1816 100.017 40.7448 100.193 41.4023C100.369 42.0599 100.457 42.7923 100.457 43.5996ZM97.4003 43.8047V43.5996C97.4003 43.1699 97.3677 42.776 97.3026 42.418C97.2375 42.0534 97.1333 41.7376 96.9901 41.4707C96.8469 41.1973 96.6581 40.9857 96.4237 40.8359C96.1893 40.6862 95.9029 40.6113 95.5643 40.6113C95.1997 40.6113 94.8905 40.6699 94.6366 40.7871C94.3827 40.9043 94.1776 41.0768 94.0213 41.3047C93.8651 41.526 93.7512 41.7995 93.6796 42.125C93.6144 42.4505 93.5786 42.8216 93.5721 43.2383V44.3125C93.5786 44.8008 93.647 45.237 93.7772 45.6211C93.9139 45.9987 94.1255 46.2949 94.412 46.5098C94.7049 46.7181 95.0956 46.8223 95.5838 46.8223C95.9289 46.8223 96.2154 46.7474 96.4432 46.5977C96.6776 46.4414 96.8631 46.2233 96.9999 45.9434C97.1431 45.6634 97.244 45.3411 97.3026 44.9766C97.3677 44.612 97.4003 44.2214 97.4003 43.8047ZM114.041 34.7715V49H110.984V38.248L107.683 39.2539V36.8906L113.738 34.7715H114.041ZM128.23 40.6211V43.1504C128.23 44.1921 128.113 45.0938 127.879 45.8555C127.651 46.6172 127.319 47.2454 126.883 47.7402C126.453 48.235 125.939 48.6029 125.34 48.8438C124.747 49.0781 124.09 49.1953 123.367 49.1953C122.788 49.1953 122.247 49.1204 121.746 48.9707C121.245 48.821 120.792 48.5898 120.389 48.2773C119.991 47.9583 119.65 47.5612 119.363 47.0859C119.077 46.6107 118.855 46.0443 118.699 45.3867C118.549 44.7292 118.474 43.9837 118.474 43.1504V40.6211C118.474 39.5664 118.588 38.6615 118.816 37.9062C119.051 37.151 119.386 36.526 119.822 36.0312C120.258 35.5365 120.773 35.1719 121.365 34.9375C121.964 34.7031 122.625 34.5859 123.348 34.5859C123.927 34.5859 124.464 34.6608 124.959 34.8105C125.46 34.9603 125.913 35.1914 126.316 35.5039C126.72 35.8164 127.062 36.2103 127.342 36.6855C127.628 37.1608 127.846 37.7272 127.996 38.3848C128.152 39.0358 128.23 39.7812 128.23 40.6211ZM125.183 43.5312V40.2207C125.183 39.7324 125.154 39.3092 125.096 38.9512C125.043 38.5866 124.965 38.2773 124.861 38.0234C124.764 37.7695 124.64 37.5645 124.49 37.4082C124.34 37.252 124.168 37.138 123.973 37.0664C123.784 36.9883 123.575 36.9492 123.348 36.9492C123.061 36.9492 122.804 37.0078 122.576 37.125C122.348 37.2422 122.156 37.4277 122 37.6816C121.844 37.929 121.723 38.2643 121.639 38.6875C121.56 39.1042 121.521 39.6152 121.521 40.2207V43.5312C121.521 44.0195 121.547 44.446 121.599 44.8105C121.658 45.1751 121.736 45.4876 121.834 45.748C121.938 46.002 122.065 46.2103 122.215 46.373C122.364 46.5293 122.537 46.6432 122.732 46.7148C122.928 46.7865 123.139 46.8223 123.367 46.8223C123.654 46.8223 123.907 46.7669 124.129 46.6562C124.35 46.5391 124.539 46.3535 124.695 46.0996C124.858 45.8392 124.978 45.4974 125.057 45.0742C125.141 44.651 125.183 44.1367 125.183 43.5312ZM140.887 44.0586H137.312V41.5879H140.887C141.414 41.5879 141.837 41.5 142.156 41.3242C142.482 41.1484 142.719 40.9076 142.869 40.6016C143.025 40.2891 143.103 39.9375 143.103 39.5469C143.103 39.1432 143.025 38.7689 142.869 38.4238C142.719 38.0723 142.482 37.7891 142.156 37.5742C141.837 37.3594 141.414 37.252 140.887 37.252H138.465V49H135.281V34.7812H140.887C142.019 34.7812 142.989 34.9863 143.797 35.3965C144.611 35.8066 145.232 36.3698 145.662 37.0859C146.098 37.7956 146.316 38.6094 146.316 39.5273C146.316 40.4453 146.098 41.2428 145.662 41.9199C145.232 42.597 144.611 43.1243 143.797 43.502C142.989 43.873 142.019 44.0586 140.887 44.0586ZM151.307 38.4336V49H148.25V38.4336H151.307ZM148.064 35.6992C148.064 35.2565 148.221 34.8952 148.533 34.6152C148.846 34.3288 149.256 34.1855 149.764 34.1855C150.271 34.1855 150.682 34.3288 150.994 34.6152C151.313 34.8952 151.473 35.2565 151.473 35.6992C151.473 36.1354 151.313 36.4967 150.994 36.7832C150.682 37.0632 150.271 37.2031 149.764 37.2031C149.256 37.2031 148.846 37.0632 148.533 36.7832C148.221 36.4967 148.064 36.1354 148.064 35.6992ZM158.875 38.4336V40.5723H152.605V38.4336H158.875ZM154.041 35.8164H157.098V45.6895C157.098 45.9824 157.133 46.207 157.205 46.3633C157.277 46.5195 157.394 46.6302 157.557 46.6953C157.719 46.7539 157.928 46.7832 158.182 46.7832C158.364 46.7832 158.52 46.7767 158.65 46.7637C158.78 46.7507 158.901 46.7344 159.012 46.7148V48.9219C158.751 49.0065 158.474 49.0716 158.182 49.1172C157.889 49.1693 157.57 49.1953 157.224 49.1953C156.567 49.1953 155.997 49.0879 155.515 48.873C155.04 48.6582 154.676 48.3197 154.422 47.8574C154.168 47.3887 154.041 46.7799 154.041 46.0312V35.8164ZM164.754 46.8223C165.079 46.8223 165.362 46.7604 165.603 46.6367C165.844 46.513 166.03 46.3405 166.16 46.1191C166.297 45.8913 166.365 45.6178 166.365 45.2988H169.236C169.236 46.0671 169.038 46.7441 168.64 47.3301C168.25 47.916 167.723 48.375 167.058 48.707C166.394 49.0326 165.646 49.1953 164.812 49.1953C163.992 49.1953 163.276 49.0618 162.664 48.7949C162.052 48.5215 161.541 48.1406 161.131 47.6523C160.721 47.1641 160.411 46.5977 160.203 45.9531C160.001 45.3021 159.9 44.599 159.9 43.8438V43.5898C159.9 42.8411 160.001 42.1413 160.203 41.4902C160.411 40.8392 160.721 40.2695 161.131 39.7812C161.541 39.293 162.049 38.9154 162.654 38.6484C163.266 38.375 163.982 38.2383 164.803 38.2383C165.668 38.2383 166.433 38.4043 167.098 38.7363C167.768 39.0684 168.292 39.5469 168.67 40.1719C169.047 40.7904 169.236 41.5358 169.236 42.4082H166.365C166.365 42.0697 166.303 41.7669 166.18 41.5C166.062 41.2266 165.88 41.0117 165.633 40.8555C165.392 40.6927 165.092 40.6113 164.734 40.6113C164.363 40.6113 164.057 40.6927 163.816 40.8555C163.582 41.0117 163.403 41.2298 163.279 41.5098C163.155 41.7897 163.071 42.1087 163.025 42.4668C162.98 42.8184 162.957 43.1927 162.957 43.5898V43.8438C162.957 44.2474 162.98 44.6315 163.025 44.9961C163.071 45.3542 163.155 45.6699 163.279 45.9434C163.409 46.2168 163.592 46.4316 163.826 46.5879C164.06 46.7441 164.37 46.8223 164.754 46.8223ZM173.728 34V49H170.682V34H173.728ZM173.328 43.3457L172.566 43.3652C172.566 42.623 172.657 41.9427 172.84 41.3242C173.029 40.6992 173.295 40.1556 173.64 39.6934C173.986 39.2311 174.399 38.873 174.881 38.6191C175.369 38.3652 175.906 38.2383 176.492 38.2383C177.013 38.2383 177.488 38.3132 177.918 38.4629C178.348 38.6126 178.719 38.8503 179.031 39.1758C179.344 39.5013 179.584 39.9277 179.754 40.4551C179.923 40.9824 180.008 41.6237 180.008 42.3789V49H176.941V42.3594C176.941 41.9102 176.876 41.5586 176.746 41.3047C176.622 41.0508 176.44 40.8717 176.199 40.7676C175.965 40.6634 175.678 40.6113 175.34 40.6113C174.943 40.6113 174.614 40.6829 174.353 40.8262C174.093 40.9629 173.888 41.1549 173.738 41.4023C173.588 41.6497 173.481 41.9395 173.416 42.2715C173.357 42.6035 173.328 42.9616 173.328 43.3457ZM186.98 49.1953C186.14 49.1953 185.389 49.0618 184.724 48.7949C184.06 48.528 183.497 48.1602 183.035 47.6914C182.579 47.2161 182.231 46.6693 181.99 46.0508C181.749 45.4323 181.629 44.7715 181.629 44.0684V43.6973C181.629 42.9095 181.739 42.1836 181.961 41.5195C182.182 40.8555 182.504 40.2793 182.928 39.791C183.357 39.2962 183.885 38.9154 184.51 38.6484C185.135 38.375 185.848 38.2383 186.648 38.2383C187.397 38.2383 188.064 38.362 188.65 38.6094C189.236 38.8503 189.731 39.1986 190.135 39.6543C190.538 40.1035 190.844 40.6471 191.053 41.2852C191.267 41.9167 191.375 42.6263 191.375 43.4141V44.6641H182.859V42.7012H188.387V42.4668C188.387 42.0957 188.318 41.7702 188.182 41.4902C188.051 41.2103 187.856 40.9954 187.596 40.8457C187.342 40.6895 187.019 40.6113 186.629 40.6113C186.258 40.6113 185.948 40.6895 185.701 40.8457C185.454 41.002 185.255 41.2233 185.105 41.5098C184.962 41.7897 184.858 42.1185 184.793 42.4961C184.728 42.8672 184.695 43.2676 184.695 43.6973V44.0684C184.695 44.4785 184.751 44.8529 184.861 45.1914C184.972 45.5299 185.135 45.8197 185.349 46.0605C185.564 46.3014 185.825 46.4902 186.131 46.627C186.437 46.7637 186.785 46.832 187.176 46.832C187.657 46.832 188.116 46.7409 188.553 46.5586C188.989 46.3698 189.366 46.0768 189.685 45.6797L191.111 47.3105C190.896 47.623 190.594 47.9258 190.203 48.2188C189.819 48.5052 189.357 48.7396 188.816 48.9219C188.276 49.1042 187.664 49.1953 186.98 49.1953ZM195.916 40.8945V49H192.869V38.4336H195.73L195.916 40.8945ZM199.07 38.3555L199.021 41.1973C198.891 41.1777 198.722 41.1615 198.514 41.1484C198.305 41.1289 198.126 41.1191 197.976 41.1191C197.586 41.1191 197.247 41.168 196.961 41.2656C196.681 41.3568 196.446 41.4935 196.258 41.6758C196.075 41.8581 195.939 42.0859 195.848 42.3594C195.756 42.6263 195.711 42.9355 195.711 43.2871L195.135 43.0039C195.135 42.3073 195.203 41.6693 195.34 41.0898C195.476 40.5104 195.675 40.0091 195.935 39.5859C196.196 39.1562 196.515 38.8242 196.892 38.5898C197.27 38.3555 197.7 38.2383 198.182 38.2383C198.338 38.2383 198.497 38.248 198.66 38.2676C198.823 38.2871 198.959 38.3164 199.07 38.3555ZM205.945 46.0605C205.945 45.8652 205.883 45.6927 205.76 45.543C205.642 45.3932 205.428 45.2565 205.115 45.1328C204.809 45.0091 204.376 44.8854 203.816 44.7617C203.289 44.651 202.797 44.5078 202.342 44.332C201.886 44.1497 201.489 43.9316 201.15 43.6777C200.812 43.4173 200.548 43.1113 200.359 42.7598C200.17 42.4017 200.076 41.9948 200.076 41.5391C200.076 41.0964 200.17 40.6764 200.359 40.2793C200.555 39.8822 200.834 39.5306 201.199 39.2246C201.57 38.9186 202.019 38.6777 202.547 38.502C203.081 38.3262 203.686 38.2383 204.363 38.2383C205.294 38.2383 206.098 38.3848 206.775 38.6777C207.452 38.9642 207.973 39.3678 208.338 39.8887C208.702 40.403 208.885 40.9922 208.885 41.6562H205.838C205.838 41.3828 205.786 41.1452 205.682 40.9434C205.577 40.7415 205.418 40.5853 205.203 40.4746C204.988 40.3574 204.705 40.2988 204.353 40.2988C204.08 40.2988 203.839 40.3477 203.631 40.4453C203.429 40.5365 203.269 40.6634 203.152 40.8262C203.042 40.9889 202.986 41.1777 202.986 41.3926C202.986 41.5423 203.019 41.679 203.084 41.8027C203.155 41.9199 203.263 42.0306 203.406 42.1348C203.556 42.2324 203.748 42.3203 203.982 42.3984C204.223 42.4766 204.516 42.5514 204.861 42.623C205.597 42.7598 206.267 42.9518 206.873 43.1992C207.485 43.4466 207.973 43.7884 208.338 44.2246C208.709 44.6608 208.894 45.237 208.894 45.9531C208.894 46.4219 208.787 46.8516 208.572 47.2422C208.364 47.6328 208.061 47.9746 207.664 48.2676C207.267 48.5605 206.792 48.7884 206.238 48.9512C205.685 49.1139 205.06 49.1953 204.363 49.1953C203.367 49.1953 202.524 49.0163 201.834 48.6582C201.144 48.3001 200.623 47.8509 200.271 47.3105C199.926 46.7637 199.754 46.2038 199.754 45.6309H202.615C202.628 45.9824 202.716 46.2689 202.879 46.4902C203.048 46.7116 203.266 46.8743 203.533 46.9785C203.8 47.0762 204.099 47.125 204.432 47.125C204.764 47.125 205.04 47.0794 205.262 46.9883C205.483 46.8971 205.652 46.7734 205.769 46.6172C205.887 46.4544 205.945 46.2689 205.945 46.0605Z" fill="black"/>
<defs>
<linearGradient id="paint0_linear_108_23" x1="0" y1="0" x2="250" y2="2.45625e-06" gradientUnits="userSpaceOnUse">
<stop stop-color="#E1AA1F"/>
<stop offset="0.401208" stop-color="#D9C82E"/>
<stop offset="0.969675" stop-color="#F3BC30"/>
</linearGradient>
</defs>
</svg>
