<svg width="264" height="73" viewBox="0 0 264 73" fill="none" xmlns="http://www.w3.org/2000/svg">
<rect width="264" height="73" rx="20" fill="url(#paint0_linear_67_47)"/>
<path d="M24.2188 47H19.2188L19.25 43.0625H24.2188C25.3542 43.0625 26.3125 42.8021 27.0938 42.2812C27.875 41.75 28.4688 40.9688 28.875 39.9375C29.2813 38.8958 29.4844 37.6302 29.4844 36.1406V35.0938C29.4844 33.9688 29.3698 32.9792 29.1406 32.125C28.9115 31.2604 28.5729 30.5365 28.125 29.9531C27.6771 29.3698 27.1198 28.9323 26.4531 28.6406C25.7969 28.349 25.0417 28.2031 24.1875 28.2031H19.125V24.25H24.1875C25.7292 24.25 27.1354 24.5104 28.4063 25.0312C29.6875 25.5521 30.7917 26.2969 31.7188 27.2656C32.6563 28.2344 33.3802 29.3802 33.8906 30.7031C34.4011 32.026 34.6563 33.5 34.6563 35.125V36.1406C34.6563 37.7552 34.4011 39.2292 33.8906 40.5625C33.3802 41.8854 32.6563 43.0312 31.7188 44C30.7917 44.9583 29.6927 45.6979 28.4219 46.2188C27.1511 46.7396 25.75 47 24.2188 47ZM22.1094 24.25V47H17.0156V24.25H22.1094ZM36.8125 38.7188V38.3906C36.8125 37.151 36.9896 36.0104 37.3438 34.9688C37.6979 33.9167 38.2188 33.0052 38.9063 32.2344C39.5938 31.4635 40.4375 30.8646 41.4375 30.4375C42.4375 30 43.5833 29.7812 44.875 29.7812C46.1875 29.7812 47.3438 30 48.3438 30.4375C49.3542 30.8646 50.2031 31.4635 50.8906 32.2344C51.5781 33.0052 52.099 33.9167 52.4531 34.9688C52.8073 36.0104 52.9844 37.151 52.9844 38.3906V38.7188C52.9844 39.9479 52.8073 41.0885 52.4531 42.1406C52.099 43.1823 51.5781 44.0938 50.8906 44.875C50.2031 45.6458 49.3594 46.2448 48.3594 46.6719C47.3594 47.099 46.2083 47.3125 44.9063 47.3125C43.6146 47.3125 42.4636 47.099 41.4531 46.6719C40.4427 46.2448 39.5938 45.6458 38.9063 44.875C38.2188 44.0938 37.6979 43.1823 37.3438 42.1406C36.9896 41.0885 36.8125 39.9479 36.8125 38.7188ZM41.7031 38.3906V38.7188C41.7031 39.3854 41.7552 40.0104 41.8594 40.5938C41.974 41.1771 42.1563 41.6875 42.4063 42.125C42.6563 42.5625 42.9844 42.9062 43.3906 43.1562C43.8073 43.3958 44.3125 43.5156 44.9063 43.5156C45.5 43.5156 46 43.3958 46.4063 43.1562C46.8125 42.9062 47.1406 42.5625 47.3906 42.125C47.6406 41.6875 47.8177 41.1771 47.9219 40.5938C48.0365 40.0104 48.0938 39.3854 48.0938 38.7188V38.3906C48.0938 37.7344 48.0365 37.1198 47.9219 36.5469C47.8177 35.9635 47.6406 35.4479 47.3906 35C47.1406 34.5521 46.8073 34.2031 46.3906 33.9531C45.9844 33.7031 45.4792 33.5781 44.875 33.5781C44.2917 33.5781 43.7969 33.7031 43.3906 33.9531C42.9844 34.2031 42.6563 34.5521 42.4063 35C42.1563 35.4479 41.974 35.9635 41.8594 36.5469C41.7552 37.1198 41.7031 37.7344 41.7031 38.3906ZM60.5313 42.2969L63.8438 30.0938H66.9219L65.875 35.5312L62.5625 47H60.0469L60.5313 42.2969ZM59.0156 30.0938L61.2344 42.25L61.4688 47H58.4688L54.3125 30.0938H59.0156ZM69.9219 42.0156L72.125 30.0938H76.8281L72.7031 47H69.7031L69.9219 42.0156ZM67.2969 30.0938L70.6406 42.2344L71.125 47H68.5781L65.2969 35.5469L64.2969 30.0938H67.2969ZM83.7031 33.7031V47H78.8125V30.0938H83.4063L83.7031 33.7031ZM83.0625 37.9531L81.8438 37.9844C81.8438 36.7135 82 35.5729 82.3125 34.5625C82.625 33.5521 83.0677 32.6927 83.6406 31.9844C84.224 31.2656 84.9167 30.7188 85.7188 30.3438C86.5313 29.9688 87.4271 29.7812 88.4063 29.7812C89.1979 29.7812 89.9219 29.8958 90.5781 30.125C91.2344 30.3542 91.7969 30.724 92.2656 31.2344C92.7448 31.7344 93.1094 32.401 93.3594 33.2344C93.6094 34.0573 93.7344 35.0729 93.7344 36.2812V47H88.8281V36.2656C88.8281 35.5573 88.7292 35.0104 88.5313 34.625C88.3333 34.2396 88.0417 33.9688 87.6563 33.8125C87.2813 33.6562 86.8229 33.5781 86.2813 33.5781C85.7083 33.5781 85.2188 33.6927 84.8125 33.9219C84.4063 34.1406 84.0729 34.4479 83.8125 34.8438C83.5521 35.2396 83.3594 35.7031 83.2344 36.2344C83.1198 36.7656 83.0625 37.3385 83.0625 37.9531ZM102.063 23V47H97.1719V23H102.063ZM104.875 38.7188V38.3906C104.875 37.151 105.052 36.0104 105.406 34.9688C105.76 33.9167 106.281 33.0052 106.969 32.2344C107.656 31.4635 108.5 30.8646 109.5 30.4375C110.5 30 111.646 29.7812 112.938 29.7812C114.25 29.7812 115.406 30 116.406 30.4375C117.417 30.8646 118.266 31.4635 118.953 32.2344C119.641 33.0052 120.161 33.9167 120.516 34.9688C120.87 36.0104 121.047 37.151 121.047 38.3906V38.7188C121.047 39.9479 120.87 41.0885 120.516 42.1406C120.161 43.1823 119.641 44.0938 118.953 44.875C118.266 45.6458 117.422 46.2448 116.422 46.6719C115.422 47.099 114.271 47.3125 112.969 47.3125C111.677 47.3125 110.526 47.099 109.516 46.6719C108.505 46.2448 107.656 45.6458 106.969 44.875C106.281 44.0938 105.76 43.1823 105.406 42.1406C105.052 41.0885 104.875 39.9479 104.875 38.7188ZM109.766 38.3906V38.7188C109.766 39.3854 109.818 40.0104 109.922 40.5938C110.036 41.1771 110.219 41.6875 110.469 42.125C110.719 42.5625 111.047 42.9062 111.453 43.1562C111.87 43.3958 112.375 43.5156 112.969 43.5156C113.563 43.5156 114.063 43.3958 114.469 43.1562C114.875 42.9062 115.203 42.5625 115.453 42.125C115.703 41.6875 115.88 41.1771 115.984 40.5938C116.099 40.0104 116.156 39.3854 116.156 38.7188V38.3906C116.156 37.7344 116.099 37.1198 115.984 36.5469C115.88 35.9635 115.703 35.4479 115.453 35C115.203 34.5521 114.87 34.2031 114.453 33.9531C114.047 33.7031 113.542 33.5781 112.938 33.5781C112.354 33.5781 111.859 33.7031 111.453 33.9531C111.047 34.2031 110.719 34.5521 110.469 35C110.219 35.4479 110.036 35.9635 109.922 36.5469C109.818 37.1198 109.766 37.7344 109.766 38.3906ZM132.563 42.9688V35.7188C132.563 35.2083 132.484 34.7708 132.328 34.4062C132.172 34.0417 131.927 33.7552 131.594 33.5469C131.26 33.3385 130.828 33.2344 130.297 33.2344C129.849 33.2344 129.458 33.3125 129.125 33.4688C128.802 33.625 128.552 33.849 128.375 34.1406C128.208 34.4323 128.125 34.7917 128.125 35.2188H123.25C123.25 34.4583 123.422 33.75 123.766 33.0938C124.109 32.4375 124.599 31.8594 125.234 31.3594C125.88 30.8594 126.651 30.474 127.547 30.2031C128.443 29.9219 129.448 29.7812 130.563 29.7812C131.885 29.7812 133.063 30.0052 134.094 30.4531C135.135 30.8906 135.958 31.5521 136.563 32.4375C137.167 33.3125 137.469 34.4167 137.469 35.75V42.8281C137.469 43.849 137.526 44.651 137.641 45.2344C137.766 45.8073 137.943 46.3073 138.172 46.7344V47H133.25C133.021 46.5104 132.849 45.9062 132.734 45.1875C132.62 44.4583 132.563 43.7188 132.563 42.9688ZM133.172 36.6875L133.203 39.375H130.781C130.24 39.375 129.771 39.4427 129.375 39.5781C128.99 39.7135 128.677 39.901 128.438 40.1406C128.198 40.3698 128.021 40.6406 127.906 40.9531C127.802 41.2552 127.75 41.5885 127.75 41.9531C127.75 42.2969 127.833 42.6094 128 42.8906C128.167 43.1615 128.396 43.375 128.688 43.5312C128.979 43.6875 129.318 43.7656 129.703 43.7656C130.339 43.7656 130.88 43.6406 131.328 43.3906C131.786 43.1406 132.141 42.8385 132.391 42.4844C132.641 42.1198 132.766 41.7812 132.766 41.4688L133.938 43.5C133.75 43.9167 133.521 44.349 133.25 44.7969C132.979 45.2344 132.635 45.6458 132.219 46.0312C131.802 46.4062 131.297 46.7135 130.703 46.9531C130.12 47.1927 129.417 47.3125 128.594 47.3125C127.531 47.3125 126.568 47.099 125.703 46.6719C124.839 46.2344 124.146 45.6354 123.625 44.875C123.115 44.1146 122.859 43.2396 122.859 42.25C122.859 41.3646 123.021 40.5781 123.344 39.8906C123.667 39.2031 124.151 38.6198 124.797 38.1406C125.453 37.6615 126.276 37.3021 127.266 37.0625C128.255 36.8125 129.411 36.6875 130.734 36.6875H133.172ZM150.516 43.2188V23H155.422V47H151.016L150.516 43.2188ZM139.984 38.75V38.4219C139.984 37.1406 140.125 35.974 140.406 34.9219C140.698 33.8594 141.12 32.9479 141.672 32.1875C142.234 31.4167 142.927 30.8229 143.75 30.4062C144.573 29.9896 145.516 29.7812 146.578 29.7812C147.557 29.7812 148.411 30 149.141 30.4375C149.87 30.8646 150.49 31.4688 151 32.25C151.521 33.0208 151.943 33.9323 152.266 34.9844C152.589 36.026 152.833 37.1562 153 38.375V38.9375C152.844 40.1042 152.599 41.1927 152.266 42.2031C151.943 43.2135 151.521 44.1042 151 44.875C150.49 45.6354 149.865 46.2344 149.125 46.6719C148.396 47.099 147.536 47.3125 146.547 47.3125C145.484 47.3125 144.542 47.099 143.719 46.6719C142.906 46.2448 142.224 45.6458 141.672 44.875C141.12 44.1042 140.698 43.1979 140.406 42.1562C140.125 41.1146 139.984 39.9792 139.984 38.75ZM144.859 38.4219V38.75C144.859 39.4167 144.906 40.0365 145 40.6094C145.104 41.1823 145.271 41.6875 145.5 42.125C145.729 42.5625 146.031 42.9062 146.406 43.1562C146.781 43.3958 147.24 43.5156 147.781 43.5156C148.51 43.5156 149.109 43.349 149.578 43.0156C150.047 42.6719 150.401 42.1979 150.641 41.5938C150.88 40.9896 151.005 40.2865 151.016 39.4844V37.8438C151.016 37.1771 150.948 36.5781 150.813 36.0469C150.677 35.5156 150.474 35.0677 150.203 34.7031C149.943 34.3385 149.615 34.0625 149.219 33.875C148.823 33.6771 148.354 33.5781 147.813 33.5781C147.281 33.5781 146.828 33.7031 146.453 33.9531C146.078 34.1927 145.771 34.5312 145.531 34.9688C145.302 35.4062 145.13 35.9219 145.016 36.5156C144.911 37.099 144.859 37.7344 144.859 38.4219ZM185.219 34.9844V44.1562C184.844 44.5833 184.271 45.0417 183.5 45.5312C182.74 46.0208 181.766 46.4427 180.578 46.7969C179.391 47.1406 177.974 47.3125 176.328 47.3125C174.839 47.3125 173.484 47.0729 172.266 46.5938C171.047 46.1042 170 45.3906 169.125 44.4531C168.25 43.5052 167.573 42.349 167.094 40.9844C166.625 39.6198 166.391 38.0573 166.391 36.2969V34.9531C166.391 33.1927 166.625 31.6302 167.094 30.2656C167.563 28.901 168.224 27.75 169.078 26.8125C169.932 25.8646 170.948 25.1458 172.125 24.6562C173.302 24.1667 174.604 23.9219 176.031 23.9219C178.063 23.9219 179.724 24.25 181.016 24.9062C182.307 25.5521 183.286 26.4479 183.953 27.5938C184.63 28.7396 185.047 30.0573 185.203 31.5469H180.297C180.193 30.7865 179.984 30.1302 179.672 29.5781C179.37 29.026 178.938 28.6042 178.375 28.3125C177.813 28.0104 177.083 27.8594 176.188 27.8594C175.469 27.8594 174.818 28.0104 174.234 28.3125C173.661 28.6042 173.177 29.0469 172.781 29.6406C172.385 30.2344 172.083 30.974 171.875 31.8594C171.667 32.7344 171.563 33.7552 171.563 34.9219V36.2969C171.563 37.4635 171.667 38.4896 171.875 39.375C172.094 40.2604 172.411 41 172.828 41.5938C173.245 42.1771 173.771 42.6198 174.406 42.9219C175.052 43.224 175.802 43.375 176.656 43.375C177.323 43.375 177.885 43.3229 178.344 43.2188C178.802 43.1042 179.177 42.9635 179.469 42.7969C179.76 42.6198 179.979 42.4583 180.125 42.3125V38.5312H176.078V34.9844H185.219ZM198.375 42.9219V30.0938H203.281V47H198.688L198.375 42.9219ZM198.891 39.4688L200.234 39.4375C200.234 40.5729 200.099 41.6198 199.828 42.5781C199.568 43.5365 199.172 44.3698 198.641 45.0781C198.12 45.7865 197.469 46.3385 196.688 46.7344C195.917 47.1198 195.016 47.3125 193.984 47.3125C193.151 47.3125 192.385 47.1979 191.688 46.9688C191 46.7292 190.406 46.3594 189.906 45.8594C189.406 45.349 189.021 44.6979 188.75 43.9062C188.479 43.1042 188.344 42.1458 188.344 41.0312V30.0938H193.219V41.0625C193.219 41.5 193.271 41.875 193.375 42.1875C193.49 42.4896 193.641 42.7396 193.828 42.9375C194.026 43.1354 194.266 43.2812 194.547 43.375C194.839 43.4688 195.156 43.5156 195.5 43.5156C196.365 43.5156 197.042 43.3385 197.531 42.9844C198.031 42.6198 198.38 42.1354 198.578 41.5312C198.786 40.9167 198.891 40.2292 198.891 39.4688ZM211.594 30.0938V47H206.703V30.0938H211.594ZM206.406 25.7188C206.406 25.0104 206.656 24.4323 207.156 23.9844C207.656 23.526 208.313 23.2969 209.125 23.2969C209.938 23.2969 210.594 23.526 211.094 23.9844C211.604 24.4323 211.859 25.0104 211.859 25.7188C211.859 26.4167 211.604 26.9948 211.094 27.4531C210.594 27.901 209.938 28.125 209.125 28.125C208.313 28.125 207.656 27.901 207.156 27.4531C206.656 26.9948 206.406 26.4167 206.406 25.7188ZM224.953 43.2188V23H229.859V47H225.453L224.953 43.2188ZM214.422 38.75V38.4219C214.422 37.1406 214.563 35.974 214.844 34.9219C215.135 33.8594 215.557 32.9479 216.109 32.1875C216.672 31.4167 217.365 30.8229 218.188 30.4062C219.01 29.9896 219.953 29.7812 221.016 29.7812C221.995 29.7812 222.849 30 223.578 30.4375C224.307 30.8646 224.927 31.4688 225.438 32.25C225.958 33.0208 226.38 33.9323 226.703 34.9844C227.026 36.026 227.271 37.1562 227.438 38.375V38.9375C227.281 40.1042 227.036 41.1927 226.703 42.2031C226.38 43.2135 225.958 44.1042 225.438 44.875C224.927 45.6354 224.302 46.2344 223.563 46.6719C222.833 47.099 221.974 47.3125 220.984 47.3125C219.922 47.3125 218.979 47.099 218.156 46.6719C217.344 46.2448 216.661 45.6458 216.109 44.875C215.557 44.1042 215.135 43.1979 214.844 42.1562C214.563 41.1146 214.422 39.9792 214.422 38.75ZM219.297 38.4219V38.75C219.297 39.4167 219.344 40.0365 219.438 40.6094C219.542 41.1823 219.708 41.6875 219.938 42.125C220.167 42.5625 220.469 42.9062 220.844 43.1562C221.219 43.3958 221.677 43.5156 222.219 43.5156C222.948 43.5156 223.547 43.349 224.016 43.0156C224.484 42.6719 224.839 42.1979 225.078 41.5938C225.318 40.9896 225.443 40.2865 225.453 39.4844V37.8438C225.453 37.1771 225.385 36.5781 225.25 36.0469C225.115 35.5156 224.911 35.0677 224.641 34.7031C224.38 34.3385 224.052 34.0625 223.656 33.875C223.26 33.6771 222.792 33.5781 222.25 33.5781C221.719 33.5781 221.266 33.7031 220.891 33.9531C220.516 34.1927 220.208 34.5312 219.969 34.9688C219.74 35.4062 219.568 35.9219 219.453 36.5156C219.349 37.099 219.297 37.7344 219.297 38.4219ZM241.078 47.3125C239.734 47.3125 238.531 47.099 237.469 46.6719C236.406 46.2448 235.505 45.6562 234.766 44.9062C234.036 44.1458 233.479 43.2708 233.094 42.2812C232.708 41.2917 232.516 40.2344 232.516 39.1094V38.5156C232.516 37.2552 232.693 36.0938 233.047 35.0312C233.401 33.9688 233.917 33.0469 234.594 32.2656C235.281 31.474 236.125 30.8646 237.125 30.4375C238.125 30 239.266 29.7812 240.547 29.7812C241.745 29.7812 242.813 29.9792 243.75 30.375C244.688 30.7604 245.479 31.3177 246.125 32.0469C246.771 32.7656 247.26 33.6354 247.594 34.6562C247.938 35.6667 248.109 36.8021 248.109 38.0625V40.0625H234.484V36.9219H243.328V36.5469C243.328 35.9531 243.219 35.4323 243 34.9844C242.792 34.5365 242.479 34.1927 242.063 33.9531C241.656 33.7031 241.141 33.5781 240.516 33.5781C239.922 33.5781 239.427 33.7031 239.031 33.9531C238.635 34.2031 238.318 34.5573 238.078 35.0156C237.849 35.4635 237.682 35.9896 237.578 36.5938C237.474 37.1875 237.422 37.8281 237.422 38.5156V39.1094C237.422 39.7656 237.51 40.3646 237.688 40.9062C237.865 41.4479 238.125 41.9115 238.469 42.2969C238.813 42.6823 239.229 42.9844 239.719 43.2031C240.208 43.4219 240.766 43.5312 241.391 43.5312C242.161 43.5312 242.896 43.3854 243.594 43.0938C244.292 42.7917 244.896 42.3229 245.406 41.6875L247.688 44.2969C247.344 44.7969 246.859 45.2812 246.234 45.75C245.62 46.2083 244.88 46.5833 244.016 46.875C243.151 47.1667 242.172 47.3125 241.078 47.3125Z" fill="black"/>
<defs>
<linearGradient id="paint0_linear_67_47" x1="0" y1="0" x2="264" y2="2.32632e-06" gradientUnits="userSpaceOnUse">
<stop stop-color="#E1AA1F"/>
<stop offset="0.401208" stop-color="#D9C82E"/>
<stop offset="0.969675" stop-color="#F3BC30"/>
</linearGradient>
</defs>
</svg>
