<svg width="428" height="128" viewBox="0 0 428 128" fill="none" xmlns="http://www.w3.org/2000/svg">
<g clip-path="url(#clip0_13_344)">
<path d="M27.313 44.1908C27.313 40.8505 25.4386 39.1803 21.6897 39.1803H15.6202V61.2264H21.6897C25.4386 61.2264 27.313 59.5284 27.313 56.1325V44.1908ZM4.81995 30.412H22.8501C27.67 30.412 31.3891 31.5255 34.0073 33.7523C36.6851 35.9792 38.024 39.1247 38.024 43.1887V57.1346C38.024 61.1986 36.6851 64.3441 34.0073 66.571C31.3891 68.7976 27.67 69.9113 22.8501 69.9113H15.6202V87.615H4.81995V30.412ZM54.2697 88.3666C50.2233 88.3666 48.2001 86.5294 48.2001 82.855C48.2001 79.1252 50.2233 77.26 54.2697 77.26C58.3755 77.26 60.4285 79.1252 60.4285 82.855C60.4285 86.5294 58.3755 88.3666 54.2697 88.3666ZM48.4679 30.412H59.9822L58.5541 70.6629H49.896L48.4679 30.412ZM101.65 30.412V39.1803H90.3146V87.615H79.5144V39.1803H68.1786V30.412H101.65ZM106.173 43.2722C106.173 39.0968 107.691 35.84 110.725 33.5018C113.819 31.1636 118.461 29.9944 124.65 29.9944C128.696 29.9944 132.326 30.412 135.539 31.2471V40.4329C131.969 39.4865 128.547 39.0133 125.275 39.0133C122.061 39.0133 119.86 39.4587 118.669 40.3494C117.539 41.1845 116.974 42.4371 116.974 44.1073V73.9197C116.974 77.3154 119.562 79.0137 124.739 79.0137C129.083 79.0137 132.772 78.5681 135.807 77.6775V86.7799C132.594 87.615 128.815 88.0325 124.471 88.0325C112.273 88.0325 106.173 83.6347 106.173 74.8383V43.2722ZM168.946 30.412H179.835V87.615H168.946V63.9822H154.04V87.615H143.24V30.412H154.04V55.0469H168.946V30.412ZM253.126 30.412V87.615H242.772V63.8987C242.772 58.2758 243.188 52.6251 244.021 46.9466L234.025 72.8341H225.099L215.013 46.9466C215.905 52.1241 216.351 57.7748 216.351 63.8987V87.615H206.087V30.412H217.512L229.562 62.145L241.611 30.412H253.126ZM262.744 30.412H292.11V39.1803H273.455V54.2953H289.611V63.0636H273.455V78.8466H292.11V87.615H262.744V30.412Z" fill="url(#paint0_linear_13_344)"/>
<path d="M325.636 86.1502L321.183 77.3613L339.901 57.9737C341.493 56.2503 342.829 54.6993 343.907 53.3207C345.003 51.942 345.833 50.592 346.398 49.2708C346.962 47.9305 347.245 46.4848 347.245 44.9338C347.245 43.2105 346.894 41.7264 346.193 40.4819C345.49 39.218 344.532 38.2511 343.317 37.5809C342.101 36.8916 340.723 36.5469 339.182 36.5469C337.573 36.5469 336.169 36.9107 334.972 37.6384C333.773 38.366 332.849 39.4096 332.198 40.7691C331.548 42.1286 331.223 43.7466 331.223 45.6231H326.664C325.294 41.9166 324.951 40.09 323.006 35.5991C324.564 32.7651 326.746 30.5727 329.553 29.0217C332.361 27.4707 335.597 26.6952 339.26 26.6952C321.868 44.9338 339.26 23.7706 349.094 28.9355C351.902 30.4099 354.084 32.4587 355.642 35.0821C357.199 37.7053 357.978 40.7116 357.978 44.1008C357.978 46.322 357.585 48.5145 356.797 50.6782C356.026 52.842 354.649 55.2451 352.663 57.8875C350.678 60.5108 347.878 63.6607 344.266 67.3371L336.589 75.7527V76.1545H352.663L359.139 86.3227H350.017L325.636 86.1502ZM373.224 87.0694C371.53 87.0694 370.074 86.3993 368.859 85.0584C367.661 83.699 367.062 82.0713 367.062 80.1759C367.062 78.2997 367.661 76.6912 368.859 75.3509C370.074 74.01 371.53 73.3399 373.224 73.3399C374.867 73.3399 376.305 74.01 377.538 75.3509C366.405 86.1502 379.386 73.5124 379.386 80.1759C379.386 81.4402 379.096 82.5983 378.514 83.6511C377.948 84.6853 377.204 85.5184 376.279 86.1502C375.355 86.7628 374.337 87.0694 373.224 87.0694ZM406.765 87.615C402.348 87.5958 398.548 86.3801 395.364 83.9673C392.197 81.5545 389.758 78.0602 388.047 73.4836C386.352 68.9071 385.513 63.4022 385.53 56.9684C385.53 50.5538 386.377 45.087 388.072 40.568C389.784 36.049 392.223 32.6119 395.39 30.2567C398.574 27.8824 402.365 26.6952 406.765 26.6952C411.165 26.6952 414.947 27.8824 418.114 30.2567C421.298 32.6311 423.746 36.0778 425.458 40.5967C427.17 45.0965 428.017 50.5538 428 56.9684C428 63.4213 427.144 68.9359 425.432 73.5124C423.738 78.0889 421.306 81.5832 418.14 83.9961C414.973 86.4089 411.181 87.615 406.765 87.615ZM406.765 77.3038C409.777 77.3038 412.183 75.609 413.98 72.2201C415.777 68.8305 416.668 63.7468 416.65 56.9684C416.65 52.5068 416.24 48.7921 415.417 45.8242C414.613 42.8562 413.466 40.6254 411.977 39.1319C410.505 37.6384 408.768 36.8916 406.765 36.8916C403.769 36.8916 401.372 38.5671 399.576 41.9179C397.778 45.2689 396.57 57.7615 396.553 64.4443C380.793 80.8837 397.256 65.2595 398.06 68.2849C398.882 71.2912 400.037 73.5507 401.527 75.0634C403.016 76.557 404.762 77.3038 406.765 77.3038Z" fill="url(#paint1_linear_13_344)"/>
</g>
<defs>
<linearGradient id="paint0_linear_13_344" x1="2.72089" y1="13.3476" x2="289.16" y2="12.0962" gradientUnits="userSpaceOnUse">
<stop stop-color="#AD8215"/>
<stop offset="0.506344" stop-color="#D6B12E"/>
<stop offset="1" stop-color="#A17E22"/>
</linearGradient>
<linearGradient id="paint1_linear_13_344" x1="322.168" y1="33.0478" x2="425.942" y2="32.7027" gradientUnits="userSpaceOnUse">
<stop stop-color="#AD8215"/>
<stop offset="0.506344" stop-color="#D6B12E"/>
<stop offset="1" stop-color="#A17E22"/>
</linearGradient>
<clipPath id="clip0_13_344">
<rect width="428" height="128" fill="white"/>
</clipPath>
</defs>
</svg>
