<svg width="250" height="62" viewBox="0 0 250 62" fill="none" xmlns="http://www.w3.org/2000/svg">
<rect width="250" height="62" rx="31" fill="url(#paint0_linear_105_4)"/>
<path d="M83.8846 21.0586H80.3104V18.5879H83.8846C84.4119 18.5879 84.8351 18.5 85.1541 18.3242C85.4796 18.1484 85.7173 17.9076 85.867 17.6016C86.0233 17.2891 86.1014 16.9375 86.1014 16.5469C86.1014 16.1432 86.0233 15.7689 85.867 15.4238C85.7173 15.0723 85.4796 14.7891 85.1541 14.5742C84.8351 14.3594 84.4119 14.252 83.8846 14.252H81.4627V26H78.2791V11.7812H83.8846C85.0174 11.7812 85.9875 11.9863 86.7948 12.3965C87.6086 12.8066 88.2303 13.3698 88.66 14.0859C89.0962 14.7956 89.3143 15.6094 89.3143 16.5273C89.3143 17.4453 89.0962 18.2428 88.66 18.9199C88.2303 19.597 87.6086 20.1243 86.7948 20.502C85.9875 20.873 85.0174 21.0586 83.8846 21.0586ZM94.1483 17.8945V26H91.1014V15.4336H93.9627L94.1483 17.8945ZM97.3026 15.3555L97.2537 18.1973C97.1235 18.1777 96.9543 18.1615 96.7459 18.1484C96.5376 18.1289 96.3586 18.1191 96.2088 18.1191C95.8182 18.1191 95.4796 18.168 95.1932 18.2656C94.9132 18.3568 94.6789 18.4935 94.4901 18.6758C94.3078 18.8581 94.1711 19.0859 94.0799 19.3594C93.9888 19.6263 93.9432 19.9355 93.9432 20.2871L93.367 20.0039C93.367 19.3073 93.4354 18.6693 93.5721 18.0898C93.7088 17.5104 93.9074 17.0091 94.1678 16.5859C94.4282 16.1562 94.7472 15.8242 95.1248 15.5898C95.5024 15.3555 95.9321 15.2383 96.4139 15.2383C96.5701 15.2383 96.7296 15.248 96.8924 15.2676C97.0552 15.2871 97.1919 15.3164 97.3026 15.3555ZM101.765 15.4336V26H98.7088V15.4336H101.765ZM98.5233 12.6992C98.5233 12.2565 98.6795 11.8952 98.992 11.6152C99.3045 11.3288 99.7147 11.1855 100.222 11.1855C100.73 11.1855 101.14 11.3288 101.453 11.6152C101.772 11.8952 101.931 12.2565 101.931 12.6992C101.931 13.1354 101.772 13.4967 101.453 13.7832C101.14 14.0632 100.73 14.2031 100.222 14.2031C99.7147 14.2031 99.3045 14.0632 98.992 13.7832C98.6795 13.4967 98.5233 13.1354 98.5233 12.6992ZM108.377 23.8223C108.702 23.8223 108.986 23.7604 109.226 23.6367C109.467 23.513 109.653 23.3405 109.783 23.1191C109.92 22.8913 109.988 22.6178 109.988 22.2988H112.859C112.859 23.0671 112.661 23.7441 112.264 24.3301C111.873 24.916 111.346 25.375 110.681 25.707C110.017 26.0326 109.269 26.1953 108.435 26.1953C107.615 26.1953 106.899 26.0618 106.287 25.7949C105.675 25.5215 105.164 25.1406 104.754 24.6523C104.344 24.1641 104.034 23.5977 103.826 22.9531C103.624 22.3021 103.523 21.599 103.523 20.8438V20.5898C103.523 19.8411 103.624 19.1413 103.826 18.4902C104.034 17.8392 104.344 17.2695 104.754 16.7812C105.164 16.293 105.672 15.9154 106.277 15.6484C106.889 15.375 107.605 15.2383 108.426 15.2383C109.291 15.2383 110.056 15.4043 110.721 15.7363C111.391 16.0684 111.915 16.5469 112.293 17.1719C112.67 17.7904 112.859 18.5358 112.859 19.4082H109.988C109.988 19.0697 109.926 18.7669 109.803 18.5C109.685 18.2266 109.503 18.0117 109.256 17.8555C109.015 17.6927 108.715 17.6113 108.357 17.6113C107.986 17.6113 107.68 17.6927 107.439 17.8555C107.205 18.0117 107.026 18.2298 106.902 18.5098C106.778 18.7897 106.694 19.1087 106.648 19.4668C106.603 19.8184 106.58 20.1927 106.58 20.5898V20.8438C106.58 21.2474 106.603 21.6315 106.648 21.9961C106.694 22.3542 106.778 22.6699 106.902 22.9434C107.032 23.2168 107.215 23.4316 107.449 23.5879C107.683 23.7441 107.993 23.8223 108.377 23.8223ZM119.353 26.1953C118.514 26.1953 117.762 26.0618 117.097 25.7949C116.433 25.528 115.87 25.1602 115.408 24.6914C114.952 24.2161 114.604 23.6693 114.363 23.0508C114.122 22.4323 114.002 21.7715 114.002 21.0684V20.6973C114.002 19.9095 114.112 19.1836 114.334 18.5195C114.555 17.8555 114.877 17.2793 115.301 16.791C115.73 16.2962 116.258 15.9154 116.883 15.6484C117.508 15.375 118.221 15.2383 119.021 15.2383C119.77 15.2383 120.437 15.362 121.023 15.6094C121.609 15.8503 122.104 16.1986 122.508 16.6543C122.911 17.1035 123.217 17.6471 123.426 18.2852C123.64 18.9167 123.748 19.6263 123.748 20.4141V21.6641H115.232V19.7012H120.76V19.4668C120.76 19.0957 120.691 18.7702 120.555 18.4902C120.424 18.2103 120.229 17.9954 119.969 17.8457C119.715 17.6895 119.392 17.6113 119.002 17.6113C118.631 17.6113 118.321 17.6895 118.074 17.8457C117.827 18.002 117.628 18.2233 117.478 18.5098C117.335 18.7897 117.231 19.1185 117.166 19.4961C117.101 19.8672 117.068 20.2676 117.068 20.6973V21.0684C117.068 21.4785 117.124 21.8529 117.234 22.1914C117.345 22.5299 117.508 22.8197 117.722 23.0605C117.937 23.3014 118.198 23.4902 118.504 23.627C118.81 23.7637 119.158 23.832 119.549 23.832C120.03 23.832 120.489 23.7409 120.926 23.5586C121.362 23.3698 121.739 23.0768 122.058 22.6797L123.484 24.3105C123.269 24.623 122.967 24.9258 122.576 25.2188C122.192 25.5052 121.73 25.7396 121.189 25.9219C120.649 26.1042 120.037 26.1953 119.353 26.1953ZM135.974 21.0586H132.4V18.5879H135.974C136.502 18.5879 136.925 18.5 137.244 18.3242C137.569 18.1484 137.807 17.9076 137.957 17.6016C138.113 17.2891 138.191 16.9375 138.191 16.5469C138.191 16.1432 138.113 15.7689 137.957 15.4238C137.807 15.0723 137.569 14.7891 137.244 14.5742C136.925 14.3594 136.502 14.252 135.974 14.252H133.553V26H130.369V11.7812H135.974C137.107 11.7812 138.077 11.9863 138.885 12.3965C139.698 12.8066 140.32 13.3698 140.75 14.0859C141.186 14.7956 141.404 15.6094 141.404 16.5273C141.404 17.4453 141.186 18.2428 140.75 18.9199C140.32 19.597 139.698 20.1243 138.885 20.502C138.077 20.873 137.107 21.0586 135.974 21.0586ZM142.605 20.8242V20.6191C142.605 19.8444 142.716 19.1315 142.937 18.4805C143.159 17.8229 143.484 17.2533 143.914 16.7715C144.344 16.2897 144.871 15.9154 145.496 15.6484C146.121 15.375 146.837 15.2383 147.644 15.2383C148.465 15.2383 149.187 15.375 149.812 15.6484C150.444 15.9154 150.974 16.2897 151.404 16.7715C151.834 17.2533 152.159 17.8229 152.381 18.4805C152.602 19.1315 152.713 19.8444 152.713 20.6191V20.8242C152.713 21.5924 152.602 22.3053 152.381 22.9629C152.159 23.6139 151.834 24.1836 151.404 24.6719C150.974 25.1536 150.447 25.528 149.822 25.7949C149.197 26.0618 148.478 26.1953 147.664 26.1953C146.857 26.1953 146.137 26.0618 145.506 25.7949C144.874 25.528 144.344 25.1536 143.914 24.6719C143.484 24.1836 143.159 23.6139 142.937 22.9629C142.716 22.3053 142.605 21.5924 142.605 20.8242ZM145.662 20.6191V20.8242C145.662 21.2409 145.694 21.6315 145.76 21.9961C145.831 22.3607 145.945 22.6797 146.101 22.9531C146.258 23.2266 146.463 23.4414 146.717 23.5977C146.977 23.7474 147.293 23.8223 147.664 23.8223C148.035 23.8223 148.347 23.7474 148.601 23.5977C148.855 23.4414 149.06 23.2266 149.217 22.9531C149.373 22.6797 149.484 22.3607 149.549 21.9961C149.62 21.6315 149.656 21.2409 149.656 20.8242V20.6191C149.656 20.209 149.62 19.8249 149.549 19.4668C149.484 19.1022 149.373 18.7799 149.217 18.5C149.06 18.2201 148.852 18.002 148.592 17.8457C148.338 17.6895 148.022 17.6113 147.644 17.6113C147.28 17.6113 146.971 17.6895 146.717 17.8457C146.463 18.002 146.258 18.2201 146.101 18.5C145.945 18.7799 145.831 19.1022 145.76 19.4668C145.694 19.8249 145.662 20.209 145.662 20.6191ZM153.875 20.8242V20.6191C153.875 19.8444 153.986 19.1315 154.207 18.4805C154.428 17.8229 154.754 17.2533 155.183 16.7715C155.613 16.2897 156.14 15.9154 156.765 15.6484C157.39 15.375 158.107 15.2383 158.914 15.2383C159.734 15.2383 160.457 15.375 161.082 15.6484C161.713 15.9154 162.244 16.2897 162.674 16.7715C163.103 17.2533 163.429 17.8229 163.65 18.4805C163.872 19.1315 163.982 19.8444 163.982 20.6191V20.8242C163.982 21.5924 163.872 22.3053 163.65 22.9629C163.429 23.6139 163.103 24.1836 162.674 24.6719C162.244 25.1536 161.717 25.528 161.092 25.7949C160.467 26.0618 159.747 26.1953 158.933 26.1953C158.126 26.1953 157.407 26.0618 156.775 25.7949C156.144 25.528 155.613 25.1536 155.183 24.6719C154.754 24.1836 154.428 23.6139 154.207 22.9629C153.986 22.3053 153.875 21.5924 153.875 20.8242ZM156.931 20.6191V20.8242C156.931 21.2409 156.964 21.6315 157.029 21.9961C157.101 22.3607 157.215 22.6797 157.371 22.9531C157.527 23.2266 157.732 23.4414 157.986 23.5977C158.247 23.7474 158.562 23.8223 158.933 23.8223C159.305 23.8223 159.617 23.7474 159.871 23.5977C160.125 23.4414 160.33 23.2266 160.486 22.9531C160.642 22.6797 160.753 22.3607 160.818 21.9961C160.89 21.6315 160.926 21.2409 160.926 20.8242V20.6191C160.926 20.209 160.89 19.8249 160.818 19.4668C160.753 19.1022 160.642 18.7799 160.486 18.5C160.33 18.2201 160.122 18.002 159.861 17.8457C159.607 17.6895 159.291 17.6113 158.914 17.6113C158.549 17.6113 158.24 17.6895 157.986 17.8457C157.732 18.002 157.527 18.2201 157.371 18.5C157.215 18.7799 157.101 19.1022 157.029 19.4668C156.964 19.8249 156.931 20.209 156.931 20.6191ZM168.797 11V26H165.74V11H168.797ZM76.2186 34.7812H81.6776C82.7648 34.7812 83.7056 34.944 84.4998 35.2695C85.3006 35.5951 85.9158 36.0768 86.3455 36.7148C86.7752 37.3529 86.9901 38.1406 86.9901 39.0781C86.9901 39.8594 86.8631 40.5234 86.6092 41.0703C86.3553 41.6172 85.9972 42.0697 85.535 42.4277C85.0793 42.7858 84.5454 43.0755 83.9334 43.2969L82.8983 43.8633H78.2498L78.2303 41.3926H81.6873C82.1626 41.3926 82.5565 41.3079 82.869 41.1387C83.1815 40.9694 83.4158 40.7318 83.5721 40.4258C83.7349 40.1133 83.8162 39.7487 83.8162 39.332C83.8162 38.9023 83.7349 38.5312 83.5721 38.2188C83.4093 37.9062 83.1685 37.6686 82.8494 37.5059C82.5369 37.3366 82.1463 37.252 81.6776 37.252H79.4022V49H76.2186V34.7812ZM84.0897 49L80.8963 42.6816L84.2557 42.6719L87.4979 48.8535V49H84.0897ZM94.617 46.0605C94.617 45.8652 94.5552 45.6927 94.4315 45.543C94.3143 45.3932 94.0994 45.2565 93.7869 45.1328C93.481 45.0091 93.048 44.8854 92.4881 44.7617C91.9608 44.651 91.4692 44.5078 91.0135 44.332C90.5578 44.1497 90.1606 43.9316 89.8221 43.6777C89.4836 43.4173 89.2199 43.1113 89.0311 42.7598C88.8423 42.4017 88.7479 41.9948 88.7479 41.5391C88.7479 41.0964 88.8423 40.6764 89.0311 40.2793C89.2264 39.8822 89.5063 39.5306 89.8709 39.2246C90.242 38.9186 90.6912 38.6777 91.2186 38.502C91.7524 38.3262 92.3579 38.2383 93.035 38.2383C93.966 38.2383 94.77 38.3848 95.4471 38.6777C96.1242 38.9642 96.645 39.3678 97.0096 39.8887C97.3742 40.403 97.5565 40.9922 97.5565 41.6562H94.5096C94.5096 41.3828 94.4575 41.1452 94.3533 40.9434C94.2492 40.7415 94.0897 40.5853 93.8748 40.4746C93.66 40.3574 93.3768 40.2988 93.0252 40.2988C92.7518 40.2988 92.5109 40.3477 92.3026 40.4453C92.1007 40.5365 91.9412 40.6634 91.8241 40.8262C91.7134 40.9889 91.658 41.1777 91.658 41.3926C91.658 41.5423 91.6906 41.679 91.7557 41.8027C91.8273 41.9199 91.9347 42.0306 92.078 42.1348C92.2277 42.2324 92.4198 42.3203 92.6541 42.3984C92.895 42.4766 93.188 42.5514 93.533 42.623C94.2687 42.7598 94.9393 42.9518 95.5448 43.1992C96.1567 43.4466 96.645 43.7884 97.0096 44.2246C97.3807 44.6608 97.5662 45.237 97.5662 45.9531C97.5662 46.4219 97.4588 46.8516 97.244 47.2422C97.0356 47.6328 96.7329 47.9746 96.3358 48.2676C95.9386 48.5605 95.4634 48.7884 94.91 48.9512C94.3566 49.1139 93.7316 49.1953 93.035 49.1953C92.0389 49.1953 91.1958 49.0163 90.5057 48.6582C89.8156 48.3001 89.2948 47.8509 88.9432 47.3105C88.5981 46.7637 88.4256 46.2038 88.4256 45.6309H91.2869C91.3 45.9824 91.3879 46.2689 91.5506 46.4902C91.7199 46.7116 91.938 46.8743 92.2049 46.9785C92.4718 47.0762 92.7713 47.125 93.1033 47.125C93.4354 47.125 93.7121 47.0794 93.9334 46.9883C94.1548 46.8971 94.3241 46.7734 94.4412 46.6172C94.5584 46.4544 94.617 46.2689 94.617 46.0605ZM99.4315 47.5547C99.4315 47.112 99.5877 46.7409 99.9002 46.4414C100.219 46.1419 100.633 45.9922 101.14 45.9922C101.655 45.9922 102.065 46.1419 102.371 46.4414C102.683 46.7409 102.84 47.112 102.84 47.5547C102.84 47.9909 102.683 48.3587 102.371 48.6582C102.065 48.9577 101.655 49.1074 101.14 49.1074C100.633 49.1074 100.219 48.9577 99.9002 48.6582C99.5877 48.3587 99.4315 47.9909 99.4315 47.5547ZM119.92 46.627V49H110.096V46.9883L114.685 42.125C115.115 41.6302 115.457 41.194 115.711 40.8164C115.971 40.4388 116.16 40.097 116.277 39.791C116.394 39.4785 116.453 39.1921 116.453 38.9316C116.453 38.5085 116.385 38.1504 116.248 37.8574C116.118 37.5645 115.926 37.3398 115.672 37.1836C115.418 37.0273 115.109 36.9492 114.744 36.9492C114.353 36.9492 114.018 37.0501 113.738 37.252C113.458 37.4538 113.243 37.7337 113.094 38.0918C112.944 38.4434 112.869 38.8438 112.869 39.293H109.803C109.803 38.4271 110.011 37.6393 110.428 36.9297C110.844 36.2135 111.427 35.6439 112.176 35.2207C112.924 34.791 113.8 34.5762 114.803 34.5762C115.831 34.5762 116.694 34.7389 117.39 35.0645C118.087 35.39 118.614 35.8555 118.972 36.4609C119.331 37.0664 119.51 37.7956 119.51 38.6484C119.51 39.1302 119.431 39.5957 119.275 40.0449C119.125 40.4941 118.907 40.9401 118.621 41.3828C118.334 41.8255 117.989 42.278 117.586 42.7402C117.182 43.196 116.726 43.6777 116.219 44.1855L114.07 46.627H119.92ZM131.355 40.6211V43.1504C131.355 44.1921 131.238 45.0938 131.004 45.8555C130.776 46.6172 130.444 47.2454 130.008 47.7402C129.578 48.235 129.064 48.6029 128.465 48.8438C127.872 49.0781 127.215 49.1953 126.492 49.1953C125.913 49.1953 125.372 49.1204 124.871 48.9707C124.37 48.821 123.917 48.5898 123.514 48.2773C123.116 47.9583 122.775 47.5612 122.488 47.0859C122.202 46.6107 121.98 46.0443 121.824 45.3867C121.674 44.7292 121.599 43.9837 121.599 43.1504V40.6211C121.599 39.5664 121.713 38.6615 121.941 37.9062C122.176 37.151 122.511 36.526 122.947 36.0312C123.383 35.5365 123.898 35.1719 124.49 34.9375C125.089 34.7031 125.75 34.5859 126.472 34.5859C127.052 34.5859 127.589 34.6608 128.084 34.8105C128.585 34.9603 129.038 35.1914 129.441 35.5039C129.845 35.8164 130.187 36.2103 130.467 36.6855C130.753 37.1608 130.971 37.7272 131.121 38.3848C131.277 39.0358 131.355 39.7812 131.355 40.6211ZM128.308 43.5312V40.2207C128.308 39.7324 128.279 39.3092 128.221 38.9512C128.168 38.5866 128.09 38.2773 127.986 38.0234C127.889 37.7695 127.765 37.5645 127.615 37.4082C127.465 37.252 127.293 37.138 127.097 37.0664C126.909 36.9883 126.7 36.9492 126.472 36.9492C126.186 36.9492 125.929 37.0078 125.701 37.125C125.473 37.2422 125.281 37.4277 125.125 37.6816C124.969 37.929 124.848 38.2643 124.764 38.6875C124.685 39.1042 124.646 39.6152 124.646 40.2207V43.5312C124.646 44.0195 124.672 44.446 124.724 44.8105C124.783 45.1751 124.861 45.4876 124.959 45.748C125.063 46.002 125.19 46.2103 125.34 46.373C125.489 46.5293 125.662 46.6432 125.857 46.7148C126.053 46.7865 126.264 46.8223 126.492 46.8223C126.778 46.8223 127.032 46.7669 127.254 46.6562C127.475 46.5391 127.664 46.3535 127.82 46.0996C127.983 45.8392 128.103 45.4974 128.181 45.0742C128.266 44.651 128.308 44.1367 128.308 43.5312ZM136.189 46.5684L136.17 48.5605C136.17 49.3158 135.984 50.0677 135.613 50.8164C135.242 51.5716 134.777 52.1901 134.217 52.6719L132.654 51.9004C132.804 51.6009 132.957 51.2982 133.113 50.9922C133.276 50.6927 133.409 50.3607 133.514 49.9961C133.624 49.6315 133.68 49.2051 133.68 48.7168V46.5684H136.189ZM148.055 40.6211V43.1504C148.055 44.1921 147.937 45.0938 147.703 45.8555C147.475 46.6172 147.143 47.2454 146.707 47.7402C146.277 48.235 145.763 48.6029 145.164 48.8438C144.571 49.0781 143.914 49.1953 143.191 49.1953C142.612 49.1953 142.071 49.1204 141.57 48.9707C141.069 48.821 140.616 48.5898 140.213 48.2773C139.816 47.9583 139.474 47.5612 139.187 47.0859C138.901 46.6107 138.68 46.0443 138.523 45.3867C138.374 44.7292 138.299 43.9837 138.299 43.1504V40.6211C138.299 39.5664 138.413 38.6615 138.64 37.9062C138.875 37.151 139.21 36.526 139.646 36.0312C140.083 35.5365 140.597 35.1719 141.189 34.9375C141.788 34.7031 142.449 34.5859 143.172 34.5859C143.751 34.5859 144.288 34.6608 144.783 34.8105C145.284 34.9603 145.737 35.1914 146.14 35.5039C146.544 35.8164 146.886 36.2103 147.166 36.6855C147.452 37.1608 147.67 37.7272 147.82 38.3848C147.976 39.0358 148.055 39.7812 148.055 40.6211ZM145.008 43.5312V40.2207C145.008 39.7324 144.978 39.3092 144.92 38.9512C144.868 38.5866 144.79 38.2773 144.685 38.0234C144.588 37.7695 144.464 37.5645 144.314 37.4082C144.165 37.252 143.992 37.138 143.797 37.0664C143.608 36.9883 143.4 36.9492 143.172 36.9492C142.885 36.9492 142.628 37.0078 142.4 37.125C142.172 37.2422 141.98 37.4277 141.824 37.6816C141.668 37.929 141.547 38.2643 141.463 38.6875C141.385 39.1042 141.346 39.6152 141.346 40.2207V43.5312C141.346 44.0195 141.372 44.446 141.424 44.8105C141.482 45.1751 141.56 45.4876 141.658 45.748C141.762 46.002 141.889 46.2103 142.039 46.373C142.189 46.5293 142.361 46.6432 142.556 46.7148C142.752 46.7865 142.963 46.8223 143.191 46.8223C143.478 46.8223 143.732 46.7669 143.953 46.6562C144.174 46.5391 144.363 46.3535 144.519 46.0996C144.682 45.8392 144.803 45.4974 144.881 45.0742C144.965 44.651 145.008 44.1367 145.008 43.5312ZM159.597 40.6211V43.1504C159.597 44.1921 159.48 45.0938 159.246 45.8555C159.018 46.6172 158.686 47.2454 158.25 47.7402C157.82 48.235 157.306 48.6029 156.707 48.8438C156.114 49.0781 155.457 49.1953 154.734 49.1953C154.155 49.1953 153.614 49.1204 153.113 48.9707C152.612 48.821 152.159 48.5898 151.756 48.2773C151.359 47.9583 151.017 47.5612 150.73 47.0859C150.444 46.6107 150.222 46.0443 150.066 45.3867C149.916 44.7292 149.842 43.9837 149.842 43.1504V40.6211C149.842 39.5664 149.956 38.6615 150.183 37.9062C150.418 37.151 150.753 36.526 151.189 36.0312C151.625 35.5365 152.14 35.1719 152.732 34.9375C153.331 34.7031 153.992 34.5859 154.715 34.5859C155.294 34.5859 155.831 34.6608 156.326 34.8105C156.827 34.9603 157.28 35.1914 157.683 35.5039C158.087 35.8164 158.429 36.2103 158.709 36.6855C158.995 37.1608 159.213 37.7272 159.363 38.3848C159.519 39.0358 159.597 39.7812 159.597 40.6211ZM156.551 43.5312V40.2207C156.551 39.7324 156.521 39.3092 156.463 38.9512C156.411 38.5866 156.333 38.2773 156.228 38.0234C156.131 37.7695 156.007 37.5645 155.857 37.4082C155.708 37.252 155.535 37.138 155.34 37.0664C155.151 36.9883 154.943 36.9492 154.715 36.9492C154.428 36.9492 154.171 37.0078 153.943 37.125C153.715 37.2422 153.523 37.4277 153.367 37.6816C153.211 37.929 153.09 38.2643 153.006 38.6875C152.928 39.1042 152.889 39.6152 152.889 40.2207V43.5312C152.889 44.0195 152.915 44.446 152.967 44.8105C153.025 45.1751 153.103 45.4876 153.201 45.748C153.305 46.002 153.432 46.2103 153.582 46.373C153.732 46.5293 153.904 46.6432 154.099 46.7148C154.295 46.7865 154.506 46.8223 154.734 46.8223C155.021 46.8223 155.275 46.7669 155.496 46.6562C155.717 46.5391 155.906 46.3535 156.062 46.0996C156.225 45.8392 156.346 45.4974 156.424 45.0742C156.508 44.651 156.551 44.1367 156.551 43.5312ZM171.14 40.6211V43.1504C171.14 44.1921 171.023 45.0938 170.789 45.8555C170.561 46.6172 170.229 47.2454 169.793 47.7402C169.363 48.235 168.849 48.6029 168.25 48.8438C167.657 49.0781 167 49.1953 166.277 49.1953C165.698 49.1953 165.157 49.1204 164.656 48.9707C164.155 48.821 163.702 48.5898 163.299 48.2773C162.902 47.9583 162.56 47.5612 162.273 47.0859C161.987 46.6107 161.765 46.0443 161.609 45.3867C161.459 44.7292 161.385 43.9837 161.385 43.1504V40.6211C161.385 39.5664 161.499 38.6615 161.726 37.9062C161.961 37.151 162.296 36.526 162.732 36.0312C163.168 35.5365 163.683 35.1719 164.275 34.9375C164.874 34.7031 165.535 34.5859 166.258 34.5859C166.837 34.5859 167.374 34.6608 167.869 34.8105C168.37 34.9603 168.823 35.1914 169.226 35.5039C169.63 35.8164 169.972 36.2103 170.252 36.6855C170.538 37.1608 170.756 37.7272 170.906 38.3848C171.062 39.0358 171.14 39.7812 171.14 40.6211ZM168.094 43.5312V40.2207C168.094 39.7324 168.064 39.3092 168.006 38.9512C167.954 38.5866 167.875 38.2773 167.771 38.0234C167.674 37.7695 167.55 37.5645 167.4 37.4082C167.25 37.252 167.078 37.138 166.883 37.0664C166.694 36.9883 166.486 36.9492 166.258 36.9492C165.971 36.9492 165.714 37.0078 165.486 37.125C165.258 37.2422 165.066 37.4277 164.91 37.6816C164.754 37.929 164.633 38.2643 164.549 38.6875C164.471 39.1042 164.431 39.6152 164.431 40.2207V43.5312C164.431 44.0195 164.458 44.446 164.51 44.8105C164.568 45.1751 164.646 45.4876 164.744 45.748C164.848 46.002 164.975 46.2103 165.125 46.373C165.275 46.5293 165.447 46.6432 165.642 46.7148C165.838 46.7865 166.049 46.8223 166.277 46.8223C166.564 46.8223 166.818 46.7669 167.039 46.6562C167.26 46.5391 167.449 46.3535 167.605 46.0996C167.768 45.8392 167.889 45.4974 167.967 45.0742C168.051 44.651 168.094 44.1367 168.094 43.5312Z" fill="black"/>
<defs>
<linearGradient id="paint0_linear_105_4" x1="0" y1="0" x2="250" y2="2.45625e-06" gradientUnits="userSpaceOnUse">
<stop stop-color="#E1AA1F"/>
<stop offset="0.401208" stop-color="#D9C82E"/>
<stop offset="0.969675" stop-color="#F3BC30"/>
</linearGradient>
</defs>
</svg>
