<svg width="252" height="73" viewBox="0 0 252 73" fill="none" xmlns="http://www.w3.org/2000/svg">
<rect width="252" height="73" rx="20" fill="url(#paint0_linear_37_12)"/>
<path d="M27.1719 24.25H35.9062C37.6458 24.25 39.151 24.5104 40.4219 25.0312C41.7031 25.5521 42.6875 26.3229 43.375 27.3438C44.0625 28.3646 44.4062 29.625 44.4062 31.125C44.4062 32.375 44.2031 33.4375 43.7969 34.3125C43.3906 35.1875 42.8177 35.9115 42.0781 36.4844C41.349 37.0573 40.4948 37.5208 39.5156 37.875L37.8594 38.7812H30.4219L30.3906 34.8281H35.9219C36.6823 34.8281 37.3125 34.6927 37.8125 34.4219C38.3125 34.151 38.6875 33.7708 38.9375 33.2812C39.1979 32.7812 39.3281 32.1979 39.3281 31.5312C39.3281 30.8438 39.1979 30.25 38.9375 29.75C38.6771 29.25 38.2917 28.8698 37.7812 28.6094C37.2812 28.3385 36.6562 28.2031 35.9062 28.2031H32.2656V47H27.1719V24.25ZM39.7656 47L34.6562 36.8906L40.0312 36.875L45.2188 46.7656V47H39.7656ZM55.5781 47.3125C54.2344 47.3125 53.0312 47.099 51.9688 46.6719C50.9062 46.2448 50.0052 45.6562 49.2656 44.9062C48.5365 44.1458 47.9792 43.2708 47.5938 42.2812C47.2083 41.2917 47.0156 40.2344 47.0156 39.1094V38.5156C47.0156 37.2552 47.1927 36.0938 47.5469 35.0312C47.901 33.9688 48.4167 33.0469 49.0938 32.2656C49.7812 31.474 50.625 30.8646 51.625 30.4375C52.625 30 53.7656 29.7812 55.0469 29.7812C56.2448 29.7812 57.3125 29.9792 58.25 30.375C59.1875 30.7604 59.9792 31.3177 60.625 32.0469C61.2708 32.7656 61.7604 33.6354 62.0938 34.6562C62.4375 35.6667 62.6094 36.8021 62.6094 38.0625V40.0625H48.9844V36.9219H57.8281V36.5469C57.8281 35.9531 57.7188 35.4323 57.5 34.9844C57.2917 34.5365 56.9792 34.1927 56.5625 33.9531C56.1562 33.7031 55.6406 33.5781 55.0156 33.5781C54.4219 33.5781 53.9271 33.7031 53.5312 33.9531C53.1354 34.2031 52.8177 34.5573 52.5781 35.0156C52.349 35.4635 52.1823 35.9896 52.0781 36.5938C51.974 37.1875 51.9219 37.8281 51.9219 38.5156V39.1094C51.9219 39.7656 52.0104 40.3646 52.1875 40.9062C52.3646 41.4479 52.625 41.9115 52.9688 42.2969C53.3125 42.6823 53.7292 42.9844 54.2188 43.2031C54.7083 43.4219 55.2656 43.5312 55.8906 43.5312C56.6615 43.5312 57.3958 43.3854 58.0938 43.0938C58.7917 42.7917 59.3958 42.3229 59.9062 41.6875L62.1875 44.2969C61.8438 44.7969 61.3594 45.2812 60.7344 45.75C60.1198 46.2083 59.3802 46.5833 58.5156 46.875C57.651 47.1667 56.6719 47.3125 55.5781 47.3125ZM75.6406 30.0938H80.0781V46.3906C80.0781 47.9427 79.724 49.2604 79.0156 50.3438C78.3177 51.4271 77.3438 52.25 76.0938 52.8125C74.8438 53.375 73.3802 53.6562 71.7031 53.6562C70.974 53.6562 70.2135 53.5573 69.4219 53.3594C68.6302 53.1719 67.8854 52.8854 67.1875 52.5C66.4896 52.125 65.9062 51.6458 65.4375 51.0625L67.5156 48.1875C67.9948 48.7292 68.5677 49.1667 69.2344 49.5C69.901 49.8438 70.6615 50.0156 71.5156 50.0156C72.2969 50.0156 72.9583 49.875 73.5 49.5938C74.0417 49.3125 74.4531 48.901 74.7344 48.3594C75.026 47.8177 75.1719 47.1615 75.1719 46.3906V34.0469L75.6406 30.0938ZM64.3438 38.75V38.4219C64.3438 37.1406 64.5 35.974 64.8125 34.9219C65.125 33.8594 65.5781 32.9479 66.1719 32.1875C66.776 31.4167 67.5 30.8229 68.3438 30.4062C69.1979 29.9896 70.1562 29.7812 71.2188 29.7812C72.3646 29.7812 73.3125 30 74.0625 30.4375C74.8125 30.8646 75.4219 31.4688 75.8906 32.25C76.3594 33.0208 76.7292 33.9323 77 34.9844C77.2708 36.026 77.4896 37.1562 77.6562 38.375V38.9375C77.4896 40.1042 77.25 41.1927 76.9375 42.2031C76.625 43.2135 76.2188 44.1042 75.7188 44.875C75.2188 45.6354 74.5938 46.2344 73.8438 46.6719C73.1042 47.099 72.2188 47.3125 71.1875 47.3125C70.1354 47.3125 69.1875 47.099 68.3438 46.6719C67.5 46.2448 66.776 45.6458 66.1719 44.875C65.5781 44.1042 65.125 43.1979 64.8125 42.1562C64.5 41.1146 64.3438 39.9792 64.3438 38.75ZM69.2188 38.4219V38.75C69.2188 39.4167 69.2812 40.0365 69.4062 40.6094C69.5417 41.1823 69.7396 41.6875 70 42.125C70.2708 42.5625 70.6042 42.9062 71 43.1562C71.4062 43.3958 71.8802 43.5156 72.4219 43.5156C73.2135 43.5156 73.8542 43.349 74.3438 43.0156C74.8438 42.6719 75.2083 42.1979 75.4375 41.5938C75.6771 40.9896 75.8021 40.2865 75.8125 39.4844V37.8438C75.8125 37.1771 75.7448 36.5781 75.6094 36.0469C75.474 35.5156 75.2708 35.0677 75 34.7031C74.7396 34.3385 74.3958 34.0625 73.9688 33.875C73.5521 33.6771 73.0469 33.5781 72.4531 33.5781C71.9219 33.5781 71.4531 33.7031 71.0469 33.9531C70.6406 34.1927 70.3021 34.5312 70.0312 34.9688C69.7604 35.4062 69.5573 35.9219 69.4219 36.5156C69.2865 37.099 69.2188 37.7344 69.2188 38.4219ZM88.4688 30.0938V47H83.5781V30.0938H88.4688ZM83.2812 25.7188C83.2812 25.0104 83.5312 24.4323 84.0312 23.9844C84.5312 23.526 85.1875 23.2969 86 23.2969C86.8125 23.2969 87.4688 23.526 87.9688 23.9844C88.4792 24.4323 88.7344 25.0104 88.7344 25.7188C88.7344 26.4167 88.4792 26.9948 87.9688 27.4531C87.4688 27.901 86.8125 28.125 86 28.125C85.1875 28.125 84.5312 27.901 84.0312 27.4531C83.5312 26.9948 83.2812 26.4167 83.2812 25.7188ZM100.984 42.2969C100.984 41.9844 100.885 41.7083 100.688 41.4688C100.5 41.2292 100.156 41.0104 99.6562 40.8125C99.1667 40.6146 98.474 40.4167 97.5781 40.2188C96.7344 40.0417 95.9479 39.8125 95.2188 39.5312C94.4896 39.2396 93.8542 38.8906 93.3125 38.4844C92.7708 38.0677 92.349 37.5781 92.0469 37.0156C91.7448 36.4427 91.5938 35.7917 91.5938 35.0625C91.5938 34.3542 91.7448 33.6823 92.0469 33.0469C92.3594 32.4115 92.8073 31.849 93.3906 31.3594C93.9844 30.8698 94.7031 30.4844 95.5469 30.2031C96.401 29.9219 97.3698 29.7812 98.4531 29.7812C99.9427 29.7812 101.229 30.0156 102.312 30.4844C103.396 30.9427 104.229 31.5885 104.812 32.4219C105.396 33.2448 105.688 34.1875 105.688 35.25H100.812C100.812 34.8125 100.729 34.4323 100.562 34.1094C100.396 33.7865 100.141 33.5365 99.7969 33.3594C99.4531 33.1719 99 33.0781 98.4375 33.0781C98 33.0781 97.6146 33.1562 97.2812 33.3125C96.9583 33.4583 96.7031 33.6615 96.5156 33.9219C96.3385 34.1823 96.25 34.4844 96.25 34.8281C96.25 35.0677 96.3021 35.2865 96.4062 35.4844C96.5208 35.6719 96.6927 35.849 96.9219 36.0156C97.1615 36.1719 97.4688 36.3125 97.8438 36.4375C98.2292 36.5625 98.6979 36.6823 99.25 36.7969C100.427 37.0156 101.5 37.3229 102.469 37.7188C103.448 38.1146 104.229 38.6615 104.812 39.3594C105.406 40.0573 105.703 40.9792 105.703 42.125C105.703 42.875 105.531 43.5625 105.188 44.1875C104.854 44.8125 104.37 45.3594 103.734 45.8281C103.099 46.2969 102.339 46.6615 101.453 46.9219C100.568 47.1823 99.5677 47.3125 98.4531 47.3125C96.8594 47.3125 95.5104 47.026 94.4062 46.4531C93.3021 45.8802 92.4688 45.1615 91.9062 44.2969C91.3542 43.4219 91.0781 42.526 91.0781 41.6094H95.6562C95.6771 42.1719 95.8177 42.6302 96.0781 42.9844C96.349 43.3385 96.6979 43.599 97.125 43.7656C97.5521 43.9219 98.0312 44 98.5625 44C99.0938 44 99.5365 43.9271 99.8906 43.7812C100.245 43.6354 100.516 43.4375 100.703 43.1875C100.891 42.9271 100.984 42.6302 100.984 42.2969ZM117.016 30.0938V33.5156H106.984V30.0938H117.016ZM109.281 25.9062H114.172V41.7031C114.172 42.1719 114.229 42.5312 114.344 42.7812C114.458 43.0312 114.646 43.2083 114.906 43.3125C115.167 43.4062 115.5 43.4531 115.906 43.4531C116.198 43.4531 116.448 43.4427 116.656 43.4219C116.865 43.401 117.057 43.375 117.234 43.3438V46.875C116.818 47.0104 116.375 47.1146 115.906 47.1875C115.438 47.2708 114.927 47.3125 114.375 47.3125C113.323 47.3125 112.411 47.1406 111.641 46.7969C110.88 46.4531 110.297 45.9115 109.891 45.1719C109.484 44.4219 109.281 43.4479 109.281 42.25V25.9062ZM127.328 47.3125C125.984 47.3125 124.781 47.099 123.719 46.6719C122.656 46.2448 121.755 45.6562 121.016 44.9062C120.286 44.1458 119.729 43.2708 119.344 42.2812C118.958 41.2917 118.766 40.2344 118.766 39.1094V38.5156C118.766 37.2552 118.943 36.0938 119.297 35.0312C119.651 33.9688 120.167 33.0469 120.844 32.2656C121.531 31.474 122.375 30.8646 123.375 30.4375C124.375 30 125.516 29.7812 126.797 29.7812C127.995 29.7812 129.062 29.9792 130 30.375C130.938 30.7604 131.729 31.3177 132.375 32.0469C133.021 32.7656 133.51 33.6354 133.844 34.6562C134.188 35.6667 134.359 36.8021 134.359 38.0625V40.0625H120.734V36.9219H129.578V36.5469C129.578 35.9531 129.469 35.4323 129.25 34.9844C129.042 34.5365 128.729 34.1927 128.312 33.9531C127.906 33.7031 127.391 33.5781 126.766 33.5781C126.172 33.5781 125.677 33.7031 125.281 33.9531C124.885 34.2031 124.568 34.5573 124.328 35.0156C124.099 35.4635 123.932 35.9896 123.828 36.5938C123.724 37.1875 123.672 37.8281 123.672 38.5156V39.1094C123.672 39.7656 123.76 40.3646 123.938 40.9062C124.115 41.4479 124.375 41.9115 124.719 42.2969C125.062 42.6823 125.479 42.9844 125.969 43.2031C126.458 43.4219 127.016 43.5312 127.641 43.5312C128.411 43.5312 129.146 43.3854 129.844 43.0938C130.542 42.7917 131.146 42.3229 131.656 41.6875L133.938 44.2969C133.594 44.7969 133.109 45.2812 132.484 45.75C131.87 46.2083 131.13 46.5833 130.266 46.875C129.401 47.1667 128.422 47.3125 127.328 47.3125ZM141.625 34.0312V47H136.75V30.0938H141.328L141.625 34.0312ZM146.672 29.9688L146.594 34.5156C146.385 34.4844 146.115 34.4583 145.781 34.4375C145.448 34.4062 145.161 34.3906 144.922 34.3906C144.297 34.3906 143.755 34.4688 143.297 34.625C142.849 34.7708 142.474 34.9896 142.172 35.2812C141.88 35.5729 141.661 35.9375 141.516 36.375C141.37 36.8021 141.297 37.2969 141.297 37.8594L140.375 37.4062C140.375 36.2917 140.484 35.2708 140.703 34.3438C140.922 33.4167 141.24 32.6146 141.656 31.9375C142.073 31.25 142.583 30.7188 143.188 30.3438C143.792 29.9688 144.479 29.7812 145.25 29.7812C145.5 29.7812 145.755 29.7969 146.016 29.8281C146.276 29.8594 146.495 29.9062 146.672 29.9688ZM175.656 24.25V47H170.578L161.984 32.2969V47H156.891V24.25H161.984L170.594 38.9531V24.25H175.656ZM178.469 38.7188V38.3906C178.469 37.151 178.646 36.0104 179 34.9688C179.354 33.9167 179.875 33.0052 180.562 32.2344C181.25 31.4635 182.094 30.8646 183.094 30.4375C184.094 30 185.24 29.7812 186.531 29.7812C187.844 29.7812 189 30 190 30.4375C191.01 30.8646 191.859 31.4635 192.547 32.2344C193.234 33.0052 193.755 33.9167 194.109 34.9688C194.464 36.0104 194.641 37.151 194.641 38.3906V38.7188C194.641 39.9479 194.464 41.0885 194.109 42.1406C193.755 43.1823 193.234 44.0938 192.547 44.875C191.859 45.6458 191.016 46.2448 190.016 46.6719C189.016 47.099 187.865 47.3125 186.562 47.3125C185.271 47.3125 184.12 47.099 183.109 46.6719C182.099 46.2448 181.25 45.6458 180.562 44.875C179.875 44.0938 179.354 43.1823 179 42.1406C178.646 41.0885 178.469 39.9479 178.469 38.7188ZM183.359 38.3906V38.7188C183.359 39.3854 183.411 40.0104 183.516 40.5938C183.63 41.1771 183.812 41.6875 184.062 42.125C184.312 42.5625 184.641 42.9062 185.047 43.1562C185.464 43.3958 185.969 43.5156 186.562 43.5156C187.156 43.5156 187.656 43.3958 188.062 43.1562C188.469 42.9062 188.797 42.5625 189.047 42.125C189.297 41.6875 189.474 41.1771 189.578 40.5938C189.693 40.0104 189.75 39.3854 189.75 38.7188V38.3906C189.75 37.7344 189.693 37.1198 189.578 36.5469C189.474 35.9635 189.297 35.4479 189.047 35C188.797 34.5521 188.464 34.2031 188.047 33.9531C187.641 33.7031 187.135 33.5781 186.531 33.5781C185.948 33.5781 185.453 33.7031 185.047 33.9531C184.641 34.2031 184.312 34.5521 184.062 35C183.812 35.4479 183.63 35.9635 183.516 36.5469C183.411 37.1198 183.359 37.7344 183.359 38.3906ZM202.188 42.2969L205.5 30.0938H208.578L207.531 35.5312L204.219 47H201.703L202.188 42.2969ZM200.672 30.0938L202.891 42.25L203.125 47H200.125L195.969 30.0938H200.672ZM211.578 42.0156L213.781 30.0938H218.484L214.359 47H211.359L211.578 42.0156ZM208.953 30.0938L212.297 42.2344L212.781 47H210.234L206.953 35.5469L205.953 30.0938H208.953ZM226.062 24.25L225.469 39.9219H221.453L220.859 24.25H226.062ZM220.719 44.7812C220.719 44.0833 220.969 43.4948 221.469 43.0156C221.969 42.5365 222.63 42.2969 223.453 42.2969C224.266 42.2969 224.917 42.5365 225.406 43.0156C225.906 43.4948 226.156 44.0833 226.156 44.7812C226.156 45.4896 225.906 46.0833 225.406 46.5625C224.917 47.0312 224.266 47.2656 223.453 47.2656C222.63 47.2656 221.969 47.0312 221.469 46.5625C220.969 46.0833 220.719 45.4896 220.719 44.7812Z" fill="black"/>
<defs>
<linearGradient id="paint0_linear_37_12" x1="0" y1="0" x2="252" y2="2.11964e-06" gradientUnits="userSpaceOnUse">
<stop stop-color="#AD8215"/>
<stop offset="0.401208" stop-color="#908314"/>
<stop offset="0.969675" stop-color="#735C21"/>
</linearGradient>
</defs>
</svg>
