<svg width="250" height="65" viewBox="0 0 250 65" fill="none" xmlns="http://www.w3.org/2000/svg">
<rect width="250" height="62" rx="31" fill="url(#paint0_linear_108_28)"/>
<path d="M62.3807 18.4902V24.2227C62.1463 24.4896 61.7882 24.776 61.3065 25.082C60.8312 25.388 60.2225 25.6517 59.4803 25.873C58.7381 26.0879 57.8527 26.1953 56.8241 26.1953C55.8931 26.1953 55.0467 26.0456 54.285 25.7461C53.5233 25.4401 52.869 24.9941 52.3221 24.4082C51.7752 23.8158 51.352 23.0931 51.0526 22.2402C50.7596 21.3874 50.6131 20.4108 50.6131 19.3105V18.4707C50.6131 17.3704 50.7596 16.3939 51.0526 15.541C51.3455 14.6882 51.7589 13.9688 52.2928 13.3828C52.8267 12.7904 53.4614 12.3411 54.1971 12.0352C54.9328 11.7292 55.7466 11.5762 56.6385 11.5762C57.908 11.5762 58.9464 11.7812 59.7537 12.1914C60.561 12.5951 61.173 13.1549 61.5897 13.8711C62.0129 14.5872 62.2733 15.4108 62.3709 16.3418H59.3045C59.2394 15.8665 59.1092 15.4564 58.9139 15.1113C58.7251 14.7663 58.4549 14.5026 58.1033 14.3203C57.7518 14.1315 57.2961 14.0371 56.7362 14.0371C56.2869 14.0371 55.88 14.1315 55.5155 14.3203C55.1574 14.5026 54.8546 14.7793 54.6073 15.1504C54.3599 15.5215 54.1711 15.9837 54.0408 16.5371C53.9106 17.084 53.8455 17.722 53.8455 18.4512V19.3105C53.8455 20.0397 53.9106 20.681 54.0408 21.2344C54.1776 21.7878 54.3761 22.25 54.6366 22.6211C54.897 22.9857 55.2257 23.2624 55.6229 23.4512C56.0265 23.64 56.4953 23.7344 57.0291 23.7344C57.4458 23.7344 57.7974 23.7018 58.0838 23.6367C58.3703 23.5651 58.6046 23.4772 58.7869 23.373C58.9692 23.2624 59.106 23.1615 59.1971 23.0703V20.707H56.6678V18.4902H62.3807ZM63.9627 20.8242V20.6191C63.9627 19.8444 64.0734 19.1315 64.2948 18.4805C64.5161 17.8229 64.8416 17.2533 65.2713 16.7715C65.701 16.2897 66.2283 15.9154 66.8533 15.6484C67.4783 15.375 68.1945 15.2383 69.0018 15.2383C69.8221 15.2383 70.5448 15.375 71.1698 15.6484C71.8013 15.9154 72.3319 16.2897 72.7616 16.7715C73.1912 17.2533 73.5168 17.8229 73.7381 18.4805C73.9595 19.1315 74.0701 19.8444 74.0701 20.6191V20.8242C74.0701 21.5924 73.9595 22.3053 73.7381 22.9629C73.5168 23.6139 73.1912 24.1836 72.7616 24.6719C72.3319 25.1536 71.8045 25.528 71.1795 25.7949C70.5545 26.0618 69.8351 26.1953 69.0213 26.1953C68.214 26.1953 67.4946 26.0618 66.8631 25.7949C66.2316 25.528 65.701 25.1536 65.2713 24.6719C64.8416 24.1836 64.5161 23.6139 64.2948 22.9629C64.0734 22.3053 63.9627 21.5924 63.9627 20.8242ZM67.0194 20.6191V20.8242C67.0194 21.2409 67.0519 21.6315 67.117 21.9961C67.1886 22.3607 67.3026 22.6797 67.4588 22.9531C67.6151 23.2266 67.8201 23.4414 68.0741 23.5977C68.3345 23.7474 68.6502 23.8223 69.0213 23.8223C69.3924 23.8223 69.7049 23.7474 69.9588 23.5977C70.2127 23.4414 70.4178 23.2266 70.5741 22.9531C70.7303 22.6797 70.841 22.3607 70.9061 21.9961C70.9777 21.6315 71.0135 21.2409 71.0135 20.8242V20.6191C71.0135 20.209 70.9777 19.8249 70.9061 19.4668C70.841 19.1022 70.7303 18.7799 70.5741 18.5C70.4178 18.2201 70.2095 18.002 69.9491 17.8457C69.6951 17.6895 69.3794 17.6113 69.0018 17.6113C68.6372 17.6113 68.328 17.6895 68.0741 17.8457C67.8201 18.002 67.6151 18.2201 67.4588 18.5C67.3026 18.7799 67.1886 19.1022 67.117 19.4668C67.0519 19.8249 67.0194 20.209 67.0194 20.6191ZM78.8846 11V26H75.828V11H78.8846ZM87.2342 23.6367V11H90.3006V26H87.5467L87.2342 23.6367ZM80.6522 20.8438V20.6387C80.6522 19.8379 80.7401 19.1087 80.9158 18.4512C81.0981 17.7871 81.3618 17.2174 81.7069 16.7422C82.0584 16.2604 82.4914 15.8893 83.0057 15.6289C83.52 15.3685 84.1092 15.2383 84.7733 15.2383C85.3852 15.2383 85.9191 15.375 86.3748 15.6484C86.8306 15.9154 87.2179 16.293 87.5369 16.7812C87.8625 17.263 88.1261 17.8327 88.328 18.4902C88.5298 19.1413 88.6828 19.8477 88.7869 20.6094V20.9609C88.6893 21.6901 88.5363 22.3704 88.328 23.002C88.1261 23.6335 87.8625 24.1901 87.5369 24.6719C87.2179 25.1471 86.8273 25.5215 86.3651 25.7949C85.9093 26.0618 85.3722 26.1953 84.7537 26.1953C84.0897 26.1953 83.5005 26.0618 82.9862 25.7949C82.4783 25.528 82.0519 25.1536 81.7069 24.6719C81.3618 24.1901 81.0981 23.6237 80.9158 22.9727C80.7401 22.3216 80.6522 21.612 80.6522 20.8438ZM83.6991 20.6387V20.8438C83.6991 21.2604 83.7283 21.6478 83.7869 22.0059C83.852 22.3639 83.9562 22.6797 84.0994 22.9531C84.2427 23.2266 84.4315 23.4414 84.6658 23.5977C84.9002 23.7474 85.1867 23.8223 85.5252 23.8223C85.981 23.8223 86.3553 23.7181 86.6483 23.5098C86.9412 23.2949 87.1626 22.9987 87.3123 22.6211C87.4621 22.2435 87.5402 21.804 87.5467 21.3027V20.2773C87.5467 19.8607 87.5044 19.4863 87.4198 19.1543C87.3351 18.8223 87.2082 18.5423 87.0389 18.3145C86.8761 18.0866 86.6711 17.9141 86.4237 17.7969C86.1763 17.6732 85.8833 17.6113 85.5448 17.6113C85.2127 17.6113 84.9295 17.6895 84.6951 17.8457C84.4608 17.9954 84.2687 18.207 84.119 18.4805C83.9757 18.7539 83.8683 19.0762 83.7967 19.4473C83.7316 19.8118 83.6991 20.209 83.6991 20.6387ZM97.3123 26.1953C96.4725 26.1953 95.7205 26.0618 95.0565 25.7949C94.3924 25.528 93.8293 25.1602 93.367 24.6914C92.9113 24.2161 92.563 23.6693 92.3221 23.0508C92.0812 22.4323 91.9608 21.7715 91.9608 21.0684V20.6973C91.9608 19.9095 92.0714 19.1836 92.2928 18.5195C92.5142 17.8555 92.8364 17.2793 93.2596 16.791C93.6893 16.2962 94.2166 15.9154 94.8416 15.6484C95.4666 15.375 96.1795 15.2383 96.9803 15.2383C97.729 15.2383 98.3963 15.362 98.9823 15.6094C99.5682 15.8503 100.063 16.1986 100.467 16.6543C100.87 17.1035 101.176 17.6471 101.385 18.2852C101.599 18.9167 101.707 19.6263 101.707 20.4141V21.6641H93.1912V19.7012H98.7186V19.4668C98.7186 19.0957 98.6502 18.7702 98.5135 18.4902C98.3833 18.2103 98.188 17.9954 97.9276 17.8457C97.6737 17.6895 97.3514 17.6113 96.9608 17.6113C96.5897 17.6113 96.2804 17.6895 96.033 17.8457C95.7856 18.002 95.5871 18.2233 95.4373 18.5098C95.2941 18.7897 95.1899 19.1185 95.1248 19.4961C95.0597 19.8672 95.0272 20.2676 95.0272 20.6973V21.0684C95.0272 21.4785 95.0825 21.8529 95.1932 22.1914C95.3039 22.5299 95.4666 22.8197 95.6815 23.0605C95.8963 23.3014 96.1567 23.4902 96.4627 23.627C96.7687 23.7637 97.117 23.832 97.5076 23.832C97.9894 23.832 98.4484 23.7409 98.8846 23.5586C99.3208 23.3698 99.6984 23.0768 100.017 22.6797L101.443 24.3105C101.228 24.623 100.926 24.9258 100.535 25.2188C100.151 25.5052 99.6886 25.7396 99.1483 25.9219C98.6079 26.1042 97.9959 26.1953 97.3123 26.1953ZM106.18 17.6895V26H103.123V15.4336H105.994L106.18 17.6895ZM105.779 20.3457L105.017 20.3652C105.017 19.571 105.115 18.8581 105.31 18.2266C105.506 17.5951 105.782 17.0579 106.14 16.6152C106.505 16.166 106.938 15.8242 107.439 15.5898C107.947 15.3555 108.507 15.2383 109.119 15.2383C109.614 15.2383 110.066 15.3099 110.476 15.4531C110.887 15.5964 111.238 15.8275 111.531 16.1465C111.831 16.459 112.058 16.8757 112.215 17.3965C112.371 17.9108 112.449 18.5456 112.449 19.3008V26H109.383V19.291C109.383 18.8483 109.321 18.5065 109.197 18.2656C109.073 18.0247 108.891 17.8555 108.65 17.7578C108.416 17.6602 108.129 17.6113 107.791 17.6113C107.433 17.6113 107.127 17.6829 106.873 17.8262C106.619 17.9629 106.411 18.1549 106.248 18.4023C106.085 18.6497 105.965 18.9395 105.887 19.2715C105.815 19.6035 105.779 19.9616 105.779 20.3457ZM125.652 11.7812V26H122.478V11.7812H125.652ZM129.978 11.7812V14.252H118.24V11.7812H129.978ZM134.607 15.4336V26H131.551V15.4336H134.607ZM131.365 12.6992C131.365 12.2565 131.521 11.8952 131.834 11.6152C132.146 11.3288 132.556 11.1855 133.064 11.1855C133.572 11.1855 133.982 11.3288 134.295 11.6152C134.614 11.8952 134.773 12.2565 134.773 12.6992C134.773 13.1354 134.614 13.4967 134.295 13.7832C133.982 14.0632 133.572 14.2031 133.064 14.2031C132.556 14.2031 132.146 14.0632 131.834 13.7832C131.521 13.4967 131.365 13.1354 131.365 12.6992ZM141.219 23.8223C141.544 23.8223 141.827 23.7604 142.068 23.6367C142.309 23.513 142.495 23.3405 142.625 23.1191C142.762 22.8913 142.83 22.6178 142.83 22.2988H145.701C145.701 23.0671 145.502 23.7441 145.105 24.3301C144.715 24.916 144.187 25.375 143.523 25.707C142.859 26.0326 142.111 26.1953 141.277 26.1953C140.457 26.1953 139.741 26.0618 139.129 25.7949C138.517 25.5215 138.006 25.1406 137.596 24.6523C137.185 24.1641 136.876 23.5977 136.668 22.9531C136.466 22.3021 136.365 21.599 136.365 20.8438V20.5898C136.365 19.8411 136.466 19.1413 136.668 18.4902C136.876 17.8392 137.185 17.2695 137.596 16.7812C138.006 16.293 138.514 15.9154 139.119 15.6484C139.731 15.375 140.447 15.2383 141.267 15.2383C142.133 15.2383 142.898 15.4043 143.562 15.7363C144.233 16.0684 144.757 16.5469 145.135 17.1719C145.512 17.7904 145.701 18.5358 145.701 19.4082H142.83C142.83 19.0697 142.768 18.7669 142.644 18.5C142.527 18.2266 142.345 18.0117 142.097 17.8555C141.857 17.6927 141.557 17.6113 141.199 17.6113C140.828 17.6113 140.522 17.6927 140.281 17.8555C140.047 18.0117 139.868 18.2298 139.744 18.5098C139.62 18.7897 139.536 19.1087 139.49 19.4668C139.444 19.8184 139.422 20.1927 139.422 20.5898V20.8438C139.422 21.2474 139.444 21.6315 139.49 21.9961C139.536 22.3542 139.62 22.6699 139.744 22.9434C139.874 23.2168 140.056 23.4316 140.291 23.5879C140.525 23.7441 140.834 23.8223 141.219 23.8223ZM150.281 10.9902V26H147.224V10.9902H150.281ZM156.99 15.4336L152.39 20.7461L149.959 23.1875L148.738 21.127L150.711 18.5781L153.318 15.4336H156.99ZM153.767 26L150.789 21.1465L152.976 19.4375L157.264 26H153.767ZM162.82 26.1953C161.98 26.1953 161.228 26.0618 160.564 25.7949C159.9 25.528 159.337 25.1602 158.875 24.6914C158.419 24.2161 158.071 23.6693 157.83 23.0508C157.589 22.4323 157.469 21.7715 157.469 21.0684V20.6973C157.469 19.9095 157.579 19.1836 157.801 18.5195C158.022 17.8555 158.344 17.2793 158.767 16.791C159.197 16.2962 159.724 15.9154 160.349 15.6484C160.974 15.375 161.687 15.2383 162.488 15.2383C163.237 15.2383 163.904 15.362 164.49 15.6094C165.076 15.8503 165.571 16.1986 165.974 16.6543C166.378 17.1035 166.684 17.6471 166.892 18.2852C167.107 18.9167 167.215 19.6263 167.215 20.4141V21.6641H158.699V19.7012H164.226V19.4668C164.226 19.0957 164.158 18.7702 164.021 18.4902C163.891 18.2103 163.696 17.9954 163.435 17.8457C163.181 17.6895 162.859 17.6113 162.469 17.6113C162.097 17.6113 161.788 17.6895 161.541 17.8457C161.293 18.002 161.095 18.2233 160.945 18.5098C160.802 18.7897 160.698 19.1185 160.633 19.4961C160.568 19.8672 160.535 20.2676 160.535 20.6973V21.0684C160.535 21.4785 160.59 21.8529 160.701 22.1914C160.812 22.5299 160.974 22.8197 161.189 23.0605C161.404 23.3014 161.665 23.4902 161.971 23.627C162.277 23.7637 162.625 23.832 163.015 23.832C163.497 23.832 163.956 23.7409 164.392 23.5586C164.829 23.3698 165.206 23.0768 165.525 22.6797L166.951 24.3105C166.736 24.623 166.433 24.9258 166.043 25.2188C165.659 25.5052 165.196 25.7396 164.656 25.9219C164.116 26.1042 163.504 26.1953 162.82 26.1953ZM174.07 15.4336V17.5723H167.801V15.4336H174.07ZM169.236 12.8164H172.293V22.6895C172.293 22.9824 172.329 23.207 172.4 23.3633C172.472 23.5195 172.589 23.6302 172.752 23.6953C172.915 23.7539 173.123 23.7832 173.377 23.7832C173.559 23.7832 173.715 23.7767 173.846 23.7637C173.976 23.7507 174.096 23.7344 174.207 23.7148V25.9219C173.946 26.0065 173.67 26.0716 173.377 26.1172C173.084 26.1693 172.765 26.1953 172.42 26.1953C171.762 26.1953 171.193 26.0879 170.711 25.873C170.236 25.6582 169.871 25.3197 169.617 24.8574C169.363 24.3887 169.236 23.7799 169.236 23.0312V12.8164ZM185.887 15.4336V17.5723H179.617V15.4336H185.887ZM181.053 12.8164H184.109V22.6895C184.109 22.9824 184.145 23.207 184.217 23.3633C184.288 23.5195 184.405 23.6302 184.568 23.6953C184.731 23.7539 184.939 23.7832 185.193 23.7832C185.375 23.7832 185.532 23.7767 185.662 23.7637C185.792 23.7507 185.913 23.7344 186.023 23.7148V25.9219C185.763 26.0065 185.486 26.0716 185.193 26.1172C184.9 26.1693 184.581 26.1953 184.236 26.1953C183.579 26.1953 183.009 26.0879 182.527 25.873C182.052 25.6582 181.687 25.3197 181.433 24.8574C181.18 24.3887 181.053 23.7799 181.053 23.0312V12.8164ZM186.639 20.8242V20.6191C186.639 19.8444 186.749 19.1315 186.971 18.4805C187.192 17.8229 187.517 17.2533 187.947 16.7715C188.377 16.2897 188.904 15.9154 189.529 15.6484C190.154 15.375 190.87 15.2383 191.678 15.2383C192.498 15.2383 193.221 15.375 193.846 15.6484C194.477 15.9154 195.008 16.2897 195.437 16.7715C195.867 17.2533 196.193 17.8229 196.414 18.4805C196.635 19.1315 196.746 19.8444 196.746 20.6191V20.8242C196.746 21.5924 196.635 22.3053 196.414 22.9629C196.193 23.6139 195.867 24.1836 195.437 24.6719C195.008 25.1536 194.48 25.528 193.855 25.7949C193.23 26.0618 192.511 26.1953 191.697 26.1953C190.89 26.1953 190.17 26.0618 189.539 25.7949C188.907 25.528 188.377 25.1536 187.947 24.6719C187.517 24.1836 187.192 23.6139 186.971 22.9629C186.749 22.3053 186.639 21.5924 186.639 20.8242ZM189.695 20.6191V20.8242C189.695 21.2409 189.728 21.6315 189.793 21.9961C189.864 22.3607 189.978 22.6797 190.135 22.9531C190.291 23.2266 190.496 23.4414 190.75 23.5977C191.01 23.7474 191.326 23.8223 191.697 23.8223C192.068 23.8223 192.381 23.7474 192.635 23.5977C192.889 23.4414 193.094 23.2266 193.25 22.9531C193.406 22.6797 193.517 22.3607 193.582 21.9961C193.653 21.6315 193.689 21.2409 193.689 20.8242V20.6191C193.689 20.209 193.653 19.8249 193.582 19.4668C193.517 19.1022 193.406 18.7799 193.25 18.5C193.094 18.2201 192.885 18.002 192.625 17.8457C192.371 17.6895 192.055 17.6113 191.678 17.6113C191.313 17.6113 191.004 17.6895 190.75 17.8457C190.496 18.002 190.291 18.2201 190.135 18.5C189.978 18.7799 189.864 19.1022 189.793 19.4668C189.728 19.8249 189.695 20.209 189.695 20.6191Z" fill="black"/>
<g style="mix-blend-mode:hard-light" filter="url(#filter0_d_108_28)">
<path d="M151.413 26.1648C151.537 26.0578 151.687 26 151.842 26C151.997 26 152.147 26.0578 152.272 26.1648C153.16 26.9085 155.118 29.1986 155.118 34.7255C155.118 36.5508 154.55 38.748 154.128 40.0917C154.026 40.4213 153.757 40.641 153.451 40.641H150.241C149.935 40.641 149.658 40.4213 149.556 40.0917C149.134 38.748 148.566 36.5508 148.566 34.7255C148.566 29.1986 150.525 26.9085 151.413 26.1648ZM153.298 33.0353C153.298 32.1057 152.643 31.3451 151.842 31.3451C151.041 31.3451 150.386 32.1057 150.386 33.0353C150.386 33.9649 151.041 34.7255 151.842 34.7255C152.643 34.7255 153.298 33.9649 153.298 33.0353ZM148.705 41.0804C148.355 40.041 147.598 37.5565 147.489 35.2748L146.667 35.9086C146.259 36.2297 146.019 36.7536 146.019 37.3198V41.0804C146.019 41.6805 146.536 42.0861 147.016 41.8664L148.705 41.0804ZM157.666 41.0804V37.3198C157.666 36.7536 157.425 36.2297 157.018 35.917L156.195 35.2832C156.086 37.5565 155.322 40.0495 154.979 41.0889L156.668 41.8748C157.149 42.0861 157.666 41.6805 157.666 41.0804Z" fill="black"/>
<path d="M72.2679 52.4169L72.1007 54.1455H67.1045V42.8634L67.6271 43.4582L67 41.1348H69.0904V52.4169H72.2679Z" fill="black"/>
<path d="M168.566 51.2778C168.566 52.0213 168.307 52.6232 167.789 53.0834C167.272 53.5259 166.595 53.7472 165.759 53.7472H160.801V37.6299H159.383L160.801 35.1606H165.759C166.595 35.1606 167.272 35.3907 167.789 35.8509C168.307 36.2935 168.566 36.8865 168.566 37.6299V51.2778ZM165.579 37.6299H163.638V51.2778H165.579C165.679 51.2778 165.729 51.2336 165.729 51.1451V37.7627C165.729 37.6742 165.679 37.6299 165.579 37.6299Z" fill="black"/>
<path d="M80.573 54.1455H78.587L79.7159 42.8634H78.8259L80.1698 41.1348H83.3741L84.6702 54.1455H82.6843L82.4544 51.9151H80.8029L80.573 54.1455ZM80.9701 50.1865H82.2871L81.6391 43.7184L80.9701 50.1865Z" fill="black"/>
<path d="M96.3707 52.4913C96.3707 53.0117 96.1896 53.433 95.8272 53.7552C95.4649 54.065 94.991 54.2198 94.4057 54.2198H93.1096C92.5243 54.2198 92.0505 54.065 91.6881 53.7552C91.3258 53.433 91.1446 53.0117 91.1446 52.4913V42.8634H91.5926L91.0401 41.1348H93.1305V52.3984C93.1305 52.4603 93.1654 52.4913 93.2351 52.4913H94.2803C94.35 52.4913 94.3848 52.4603 94.3848 52.3984V41.172H96.3707V52.4913Z" fill="black"/>
<path d="M107.375 41.1348H109.361V54.1455H107.375L105.076 46.1904V54.1455H103.09V42.8634H102.776L103.314 41.1348H105.18L107.501 49.4059L107.375 41.1348Z" fill="black"/>
<path d="M121.262 48.4952V52.4913C121.262 53.0117 121.081 53.433 120.718 53.7552C120.356 54.065 119.882 54.2199 119.297 54.2199H117.792C117.206 54.2199 116.733 54.065 116.37 53.7552C116.008 53.433 115.827 53.0117 115.827 52.4913V42.7891C115.827 42.2686 116.008 41.8535 116.37 41.5438C116.733 41.2216 117.206 41.0605 117.792 41.0605L118.544 40.471L118.022 41.5438H119.171L118.544 40.471L119.297 41.0605C119.882 41.0605 120.356 41.2216 120.718 41.5438C121.081 41.8535 121.262 42.2686 121.262 42.7891V46.9525L119.276 46.7666V42.882C119.276 42.82 119.241 42.7891 119.171 42.7891H117.917C117.848 42.7891 117.813 42.82 117.813 42.882V52.3984C117.813 52.4603 117.848 52.4913 117.917 52.4913H119.171C119.241 52.4913 119.276 52.4603 119.276 52.3984V48.4952H121.262Z" fill="black"/>
<path d="M128.369 40.7366V46.3497H129.561V40.7366H131.547V53.7472H129.561V48.0783H128.369V53.7472H126.384V42.4651H125.712L126.384 40.7366H128.369Z" fill="black"/>
<path d="M137.806 41.6593L136.91 39.8072H140.449C141.076 39.8072 141.584 39.9798 141.972 40.325C142.36 40.6569 142.555 41.1017 142.555 41.6593V47.8924C142.555 48.45 142.316 48.9014 141.838 49.2466C141.375 49.5785 140.83 49.7444 140.203 49.7444H139.15V53.7472H137.022V41.6593H137.806ZM140.315 41.6593H139.15V47.8924H140.315C140.39 47.8924 140.427 47.8592 140.427 47.7928V41.7588C140.427 41.6924 140.39 41.6593 140.315 41.6593Z" fill="black"/>
<path d="M146.541 51.2249C146.73 51.0468 147.139 50.893 147.139 50.893C147.139 50.893 146.87 49.9881 147.139 49.499C147.412 49.0004 147.988 49.0464 148.408 48.636C148.718 48.3328 149.08 48.3705 149.08 47.7731C149.08 47.1756 149.08 43.7902 149.602 42.7945C150.125 41.7988 150.672 41.3917 151.693 41.4005C152.543 41.4078 153.335 42.1308 153.559 42.3962C153.783 42.6616 154.08 43.3873 154.306 44.0557C154.779 45.4538 154.754 47.7731 154.754 47.7731L153.41 46.711V47.3748L154.007 48.636C154.007 48.636 155.724 48.9679 155.724 50.5611C155.724 52.1542 154.231 52.3533 154.231 52.3533C154.231 52.3533 154.482 53.2129 154.231 53.681C154.036 54.0451 153.41 54.4111 153.41 54.4111C153.41 54.4111 153.835 54.6 154.007 54.8094C154.138 54.969 154.231 55.2741 154.231 55.2741H156.023C156.023 55.2741 156.098 54.8758 156.919 54.8094C157.74 54.7431 157.964 55.2741 157.964 55.2741C157.964 55.2741 158.561 53.9465 160.129 54.1456C161.697 54.3448 161.772 55.7388 161.772 55.7388C161.772 55.7388 161.996 55.6724 162.369 55.7388C162.742 55.8051 162.892 56.0707 162.892 56.0707C162.892 56.0707 163.564 55.4069 164.758 55.606C165.953 55.8051 166.326 57 166.326 57H167.894C167.894 57 168.416 56.0921 169.014 56.0707C169.431 56.0557 169.984 56.469 169.984 56.469C169.984 56.469 170.589 56.0197 171.029 56.0707C171.582 56.1346 172 57 172 57H132.73C132.73 57 132.73 56.2698 133.551 56.137C134.372 56.0043 134.671 56.5353 134.671 56.5353C134.671 56.5353 134.82 55.9379 135.641 55.7388C136.462 55.5396 136.985 56.0043 136.985 56.0043C136.985 56.0043 137.209 54.8758 138.777 54.8758C140.345 54.8758 140.643 56.0043 140.643 56.0043C140.643 56.0043 140.867 55.7388 141.539 55.7388C142.211 55.7388 142.659 56.0043 142.659 56.0043C142.659 56.0043 142.435 55.4732 143.256 54.6767C144.078 53.8801 145.123 54.1456 145.123 54.1456C145.123 54.1456 144.75 53.2163 145.123 52.6189C145.496 52.0214 146.168 52.1542 146.168 52.1542C146.168 52.1542 146.244 51.5055 146.541 51.2249Z" fill="black"/>
<path d="M150.05 46.5781L150.573 42.9935C150.573 42.9935 150.872 41.9314 151.693 41.9314C152.514 41.9314 152.738 42.7944 152.738 42.7944L153.783 45.8479C153.783 45.8479 152.813 44.8522 152.514 44.8522C152.215 44.8522 151.767 50.7601 151.767 50.7601C151.767 50.7601 151.17 46.3126 151.021 45.8479C150.872 45.3832 150.05 46.5781 150.05 46.5781Z" fill="#F50F0F"/>
</g>
<defs>
<filter id="filter0_d_108_28" x="63" y="26" width="113" height="39" filterUnits="userSpaceOnUse" color-interpolation-filters="sRGB">
<feFlood flood-opacity="0" result="BackgroundImageFix"/>
<feColorMatrix in="SourceAlpha" type="matrix" values="0 0 0 0 0 0 0 0 0 0 0 0 0 0 0 0 0 0 127 0" result="hardAlpha"/>
<feOffset dy="4"/>
<feGaussianBlur stdDeviation="2"/>
<feComposite in2="hardAlpha" operator="out"/>
<feColorMatrix type="matrix" values="0 0 0 0 0 0 0 0 0 0 0 0 0 0 0 0 0 0 0.25 0"/>
<feBlend mode="normal" in2="BackgroundImageFix" result="effect1_dropShadow_108_28"/>
<feBlend mode="normal" in="SourceGraphic" in2="effect1_dropShadow_108_28" result="shape"/>
</filter>
<linearGradient id="paint0_linear_108_28" x1="0" y1="0" x2="250" y2="2.45625e-06" gradientUnits="userSpaceOnUse">
<stop stop-color="#E1AA1F"/>
<stop offset="0.401208" stop-color="#D9C82E"/>
<stop offset="0.969675" stop-color="#F3BC30"/>
</linearGradient>
</defs>
</svg>
