<svg width="267" height="73" viewBox="0 0 267 73" fill="none" xmlns="http://www.w3.org/2000/svg">
<path d="M0 20C0 8.95431 8.95431 0 20 0H247C258.046 0 267 8.95431 267 20V53C267 64.0457 258.046 73 247 73H20C8.9543 73 0 64.0457 0 53V20Z" fill="url(#paint0_linear_37_29)"/>
<path d="M242.078 47.3125C240.734 47.3125 239.531 47.099 238.469 46.6719C237.406 46.2448 236.505 45.6562 235.766 44.9062C235.036 44.1458 234.479 43.2708 234.094 42.2812C233.708 41.2917 233.516 40.2344 233.516 39.1094V38.5156C233.516 37.2552 233.693 36.0938 234.047 35.0312C234.401 33.9688 234.917 33.0469 235.594 32.2656C236.281 31.474 237.125 30.8646 238.125 30.4375C239.125 30 240.266 29.7812 241.547 29.7812C242.745 29.7812 243.812 29.9792 244.75 30.375C245.688 30.7604 246.479 31.3177 247.125 32.0469C247.771 32.7656 248.26 33.6354 248.594 34.6562C248.938 35.6667 249.109 36.8021 249.109 38.0625V40.0625H235.484V36.9219H244.328V36.5469C244.328 35.9531 244.219 35.4323 244 34.9844C243.792 34.5365 243.479 34.1927 243.062 33.9531C242.656 33.7031 242.141 33.5781 241.516 33.5781C240.922 33.5781 240.427 33.7031 240.031 33.9531C239.635 34.2031 239.318 34.5573 239.078 35.0156C238.849 35.4635 238.682 35.9896 238.578 36.5938C238.474 37.1875 238.422 37.8281 238.422 38.5156V39.1094C238.422 39.7656 238.51 40.3646 238.688 40.9062C238.865 41.4479 239.125 41.9115 239.469 42.2969C239.812 42.6823 240.229 42.9844 240.719 43.2031C241.208 43.4219 241.766 43.5312 242.391 43.5312C243.161 43.5312 243.896 43.3854 244.594 43.0938C245.292 42.7917 245.896 42.3229 246.406 41.6875L248.688 44.2969C248.344 44.7969 247.859 45.2812 247.234 45.75C246.62 46.2083 245.88 46.5833 245.016 46.875C244.151 47.1667 243.172 47.3125 242.078 47.3125Z" fill="black"/>
<path d="M225.953 43.2188V23H230.859V47H226.453L225.953 43.2188ZM215.422 38.75V38.4219C215.422 37.1406 215.562 35.974 215.844 34.9219C216.135 33.8594 216.557 32.9479 217.109 32.1875C217.672 31.4167 218.365 30.8229 219.188 30.4062C220.01 29.9896 220.953 29.7812 222.016 29.7812C222.995 29.7812 223.849 30 224.578 30.4375C225.307 30.8646 225.927 31.4688 226.438 32.25C226.958 33.0208 227.38 33.9323 227.703 34.9844C228.026 36.026 228.271 37.1562 228.438 38.375V38.9375C228.281 40.1042 228.036 41.1927 227.703 42.2031C227.38 43.2135 226.958 44.1042 226.438 44.875C225.927 45.6354 225.302 46.2344 224.562 46.6719C223.833 47.099 222.974 47.3125 221.984 47.3125C220.922 47.3125 219.979 47.099 219.156 46.6719C218.344 46.2448 217.661 45.6458 217.109 44.875C216.557 44.1042 216.135 43.1979 215.844 42.1562C215.562 41.1146 215.422 39.9792 215.422 38.75ZM220.297 38.4219V38.75C220.297 39.4167 220.344 40.0365 220.438 40.6094C220.542 41.1823 220.708 41.6875 220.938 42.125C221.167 42.5625 221.469 42.9062 221.844 43.1562C222.219 43.3958 222.677 43.5156 223.219 43.5156C223.948 43.5156 224.547 43.349 225.016 43.0156C225.484 42.6719 225.839 42.1979 226.078 41.5938C226.318 40.9896 226.443 40.2865 226.453 39.4844V37.8438C226.453 37.1771 226.385 36.5781 226.25 36.0469C226.115 35.5156 225.911 35.0677 225.641 34.7031C225.38 34.3385 225.052 34.0625 224.656 33.875C224.26 33.6771 223.792 33.5781 223.25 33.5781C222.719 33.5781 222.266 33.7031 221.891 33.9531C221.516 34.1927 221.208 34.5312 220.969 34.9688C220.74 35.4062 220.568 35.9219 220.453 36.5156C220.349 37.099 220.297 37.7344 220.297 38.4219Z" fill="black"/>
<path d="M212.594 30.0938V47H207.703V30.0938H212.594ZM207.406 25.7188C207.406 25.0104 207.656 24.4323 208.156 23.9844C208.656 23.526 209.312 23.2969 210.125 23.2969C210.938 23.2969 211.594 23.526 212.094 23.9844C212.604 24.4323 212.859 25.0104 212.859 25.7188C212.859 26.4167 212.604 26.9948 212.094 27.4531C211.594 27.901 210.938 28.125 210.125 28.125C209.312 28.125 208.656 27.901 208.156 27.4531C207.656 26.9948 207.406 26.4167 207.406 25.7188Z" fill="black"/>
<path d="M199.375 42.9219V30.0938H204.281V47H199.688L199.375 42.9219ZM199.891 39.4688L201.234 39.4375C201.234 40.5729 201.099 41.6198 200.828 42.5781C200.568 43.5365 200.172 44.3698 199.641 45.0781C199.12 45.7865 198.469 46.3385 197.688 46.7344C196.917 47.1198 196.016 47.3125 194.984 47.3125C194.151 47.3125 193.385 47.1979 192.688 46.9688C192 46.7292 191.406 46.3594 190.906 45.8594C190.406 45.349 190.021 44.6979 189.75 43.9062C189.479 43.1042 189.344 42.1458 189.344 41.0312V30.0938H194.219V41.0625C194.219 41.5 194.271 41.875 194.375 42.1875C194.49 42.4896 194.641 42.7396 194.828 42.9375C195.026 43.1354 195.266 43.2812 195.547 43.375C195.839 43.4688 196.156 43.5156 196.5 43.5156C197.365 43.5156 198.042 43.3385 198.531 42.9844C199.031 42.6198 199.38 42.1354 199.578 41.5312C199.786 40.9167 199.891 40.2292 199.891 39.4688Z" fill="black"/>
<path d="M186.219 34.9844V44.1562C185.844 44.5833 185.271 45.0417 184.5 45.5312C183.74 46.0208 182.766 46.4427 181.578 46.7969C180.391 47.1406 178.974 47.3125 177.328 47.3125C175.839 47.3125 174.484 47.0729 173.266 46.5938C172.047 46.1042 171 45.3906 170.125 44.4531C169.25 43.5052 168.573 42.349 168.094 40.9844C167.625 39.6198 167.391 38.0573 167.391 36.2969V34.9531C167.391 33.1927 167.625 31.6302 168.094 30.2656C168.562 28.901 169.224 27.75 170.078 26.8125C170.932 25.8646 171.948 25.1458 173.125 24.6562C174.302 24.1667 175.604 23.9219 177.031 23.9219C179.062 23.9219 180.724 24.25 182.016 24.9062C183.307 25.5521 184.286 26.4479 184.953 27.5938C185.63 28.7396 186.047 30.0573 186.203 31.5469H181.297C181.193 30.7865 180.984 30.1302 180.672 29.5781C180.37 29.026 179.938 28.6042 179.375 28.3125C178.812 28.0104 178.083 27.8594 177.188 27.8594C176.469 27.8594 175.818 28.0104 175.234 28.3125C174.661 28.6042 174.177 29.0469 173.781 29.6406C173.385 30.2344 173.083 30.974 172.875 31.8594C172.667 32.7344 172.562 33.7552 172.562 34.9219V36.2969C172.562 37.4635 172.667 38.4896 172.875 39.375C173.094 40.2604 173.411 41 173.828 41.5938C174.245 42.1771 174.771 42.6198 175.406 42.9219C176.052 43.224 176.802 43.375 177.656 43.375C178.323 43.375 178.885 43.3229 179.344 43.2188C179.802 43.1042 180.177 42.9635 180.469 42.7969C180.76 42.6198 180.979 42.4583 181.125 42.3125V38.5312H177.078V34.9844H186.219Z" fill="black"/>
<path d="M151.516 43.2188V23H156.422V47H152.016L151.516 43.2188ZM140.984 38.75V38.4219C140.984 37.1406 141.125 35.974 141.406 34.9219C141.698 33.8594 142.12 32.9479 142.672 32.1875C143.234 31.4167 143.927 30.8229 144.75 30.4062C145.573 29.9896 146.516 29.7812 147.578 29.7812C148.557 29.7812 149.411 30 150.141 30.4375C150.87 30.8646 151.49 31.4688 152 32.25C152.521 33.0208 152.943 33.9323 153.266 34.9844C153.589 36.026 153.833 37.1562 154 38.375V38.9375C153.844 40.1042 153.599 41.1927 153.266 42.2031C152.943 43.2135 152.521 44.1042 152 44.875C151.49 45.6354 150.865 46.2344 150.125 46.6719C149.396 47.099 148.536 47.3125 147.547 47.3125C146.484 47.3125 145.542 47.099 144.719 46.6719C143.906 46.2448 143.224 45.6458 142.672 44.875C142.12 44.1042 141.698 43.1979 141.406 42.1562C141.125 41.1146 140.984 39.9792 140.984 38.75ZM145.859 38.4219V38.75C145.859 39.4167 145.906 40.0365 146 40.6094C146.104 41.1823 146.271 41.6875 146.5 42.125C146.729 42.5625 147.031 42.9062 147.406 43.1562C147.781 43.3958 148.24 43.5156 148.781 43.5156C149.51 43.5156 150.109 43.349 150.578 43.0156C151.047 42.6719 151.401 42.1979 151.641 41.5938C151.88 40.9896 152.005 40.2865 152.016 39.4844V37.8438C152.016 37.1771 151.948 36.5781 151.812 36.0469C151.677 35.5156 151.474 35.0677 151.203 34.7031C150.943 34.3385 150.615 34.0625 150.219 33.875C149.823 33.6771 149.354 33.5781 148.812 33.5781C148.281 33.5781 147.828 33.7031 147.453 33.9531C147.078 34.1927 146.771 34.5312 146.531 34.9688C146.302 35.4062 146.13 35.9219 146.016 36.5156C145.911 37.099 145.859 37.7344 145.859 38.4219Z" fill="black"/>
<path d="M133.562 42.9688V35.7188C133.562 35.2083 133.484 34.7708 133.328 34.4062C133.172 34.0417 132.927 33.7552 132.594 33.5469C132.26 33.3385 131.828 33.2344 131.297 33.2344C130.849 33.2344 130.458 33.3125 130.125 33.4688C129.802 33.625 129.552 33.849 129.375 34.1406C129.208 34.4323 129.125 34.7917 129.125 35.2188H124.25C124.25 34.4583 124.422 33.75 124.766 33.0938C125.109 32.4375 125.599 31.8594 126.234 31.3594C126.88 30.8594 127.651 30.474 128.547 30.2031C129.443 29.9219 130.448 29.7812 131.562 29.7812C132.885 29.7812 134.062 30.0052 135.094 30.4531C136.135 30.8906 136.958 31.5521 137.562 32.4375C138.167 33.3125 138.469 34.4167 138.469 35.75V42.8281C138.469 43.849 138.526 44.651 138.641 45.2344C138.766 45.8073 138.943 46.3073 139.172 46.7344V47H134.25C134.021 46.5104 133.849 45.9062 133.734 45.1875C133.62 44.4583 133.562 43.7188 133.562 42.9688ZM134.172 36.6875L134.203 39.375H131.781C131.24 39.375 130.771 39.4427 130.375 39.5781C129.99 39.7135 129.677 39.901 129.438 40.1406C129.198 40.3698 129.021 40.6406 128.906 40.9531C128.802 41.2552 128.75 41.5885 128.75 41.9531C128.75 42.2969 128.833 42.6094 129 42.8906C129.167 43.1615 129.396 43.375 129.688 43.5312C129.979 43.6875 130.318 43.7656 130.703 43.7656C131.339 43.7656 131.88 43.6406 132.328 43.3906C132.786 43.1406 133.141 42.8385 133.391 42.4844C133.641 42.1198 133.766 41.7812 133.766 41.4688L134.938 43.5C134.75 43.9167 134.521 44.349 134.25 44.7969C133.979 45.2344 133.635 45.6458 133.219 46.0312C132.802 46.4062 132.297 46.7135 131.703 46.9531C131.12 47.1927 130.417 47.3125 129.594 47.3125C128.531 47.3125 127.568 47.099 126.703 46.6719C125.839 46.2344 125.146 45.6354 124.625 44.875C124.115 44.1146 123.859 43.2396 123.859 42.25C123.859 41.3646 124.021 40.5781 124.344 39.8906C124.667 39.2031 125.151 38.6198 125.797 38.1406C126.453 37.6615 127.276 37.3021 128.266 37.0625C129.255 36.8125 130.411 36.6875 131.734 36.6875H134.172Z" fill="black"/>
<path d="M105.875 38.7188V38.3906C105.875 37.151 106.052 36.0104 106.406 34.9688C106.76 33.9167 107.281 33.0052 107.969 32.2344C108.656 31.4635 109.5 30.8646 110.5 30.4375C111.5 30 112.646 29.7812 113.938 29.7812C115.25 29.7812 116.406 30 117.406 30.4375C118.417 30.8646 119.266 31.4635 119.953 32.2344C120.641 33.0052 121.161 33.9167 121.516 34.9688C121.87 36.0104 122.047 37.151 122.047 38.3906V38.7188C122.047 39.9479 121.87 41.0885 121.516 42.1406C121.161 43.1823 120.641 44.0938 119.953 44.875C119.266 45.6458 118.422 46.2448 117.422 46.6719C116.422 47.099 115.271 47.3125 113.969 47.3125C112.677 47.3125 111.526 47.099 110.516 46.6719C109.505 46.2448 108.656 45.6458 107.969 44.875C107.281 44.0938 106.76 43.1823 106.406 42.1406C106.052 41.0885 105.875 39.9479 105.875 38.7188ZM110.766 38.3906V38.7188C110.766 39.3854 110.818 40.0104 110.922 40.5938C111.036 41.1771 111.219 41.6875 111.469 42.125C111.719 42.5625 112.047 42.9062 112.453 43.1562C112.87 43.3958 113.375 43.5156 113.969 43.5156C114.562 43.5156 115.062 43.3958 115.469 43.1562C115.875 42.9062 116.203 42.5625 116.453 42.125C116.703 41.6875 116.88 41.1771 116.984 40.5938C117.099 40.0104 117.156 39.3854 117.156 38.7188V38.3906C117.156 37.7344 117.099 37.1198 116.984 36.5469C116.88 35.9635 116.703 35.4479 116.453 35C116.203 34.5521 115.87 34.2031 115.453 33.9531C115.047 33.7031 114.542 33.5781 113.938 33.5781C113.354 33.5781 112.859 33.7031 112.453 33.9531C112.047 34.2031 111.719 34.5521 111.469 35C111.219 35.4479 111.036 35.9635 110.922 36.5469C110.818 37.1198 110.766 37.7344 110.766 38.3906Z" fill="black"/>
<path d="M103.062 23V47H98.1719V23H103.062Z" fill="black"/>
<path d="M84.7031 33.7031V47H79.8125V30.0938H84.4062L84.7031 33.7031ZM84.0625 37.9531L82.8438 37.9844C82.8438 36.7135 83 35.5729 83.3125 34.5625C83.625 33.5521 84.0677 32.6927 84.6406 31.9844C85.224 31.2656 85.9167 30.7188 86.7188 30.3438C87.5312 29.9688 88.4271 29.7812 89.4062 29.7812C90.1979 29.7812 90.9219 29.8958 91.5781 30.125C92.2344 30.3542 92.7969 30.724 93.2656 31.2344C93.7448 31.7344 94.1094 32.401 94.3594 33.2344C94.6094 34.0573 94.7344 35.0729 94.7344 36.2812V47H89.8281V36.2656C89.8281 35.5573 89.7292 35.0104 89.5312 34.625C89.3333 34.2396 89.0417 33.9688 88.6562 33.8125C88.2812 33.6562 87.8229 33.5781 87.2812 33.5781C86.7083 33.5781 86.2188 33.6927 85.8125 33.9219C85.4062 34.1406 85.0729 34.4479 84.8125 34.8438C84.5521 35.2396 84.3594 35.7031 84.2344 36.2344C84.1198 36.7656 84.0625 37.3385 84.0625 37.9531Z" fill="black"/>
<path d="M61.5312 42.2969L64.8438 30.0938H67.9219L66.875 35.5312L63.5625 47H61.0469L61.5312 42.2969ZM60.0156 30.0938L62.2344 42.25L62.4688 47H59.4688L55.3125 30.0938H60.0156ZM70.9219 42.0156L73.125 30.0938H77.8281L73.7031 47H70.7031L70.9219 42.0156ZM68.2969 30.0938L71.6406 42.2344L72.125 47H69.5781L66.2969 35.5469L65.2969 30.0938H68.2969Z" fill="black"/>
<path d="M37.8125 38.7188V38.3906C37.8125 37.151 37.9896 36.0104 38.3438 34.9688C38.6979 33.9167 39.2188 33.0052 39.9062 32.2344C40.5938 31.4635 41.4375 30.8646 42.4375 30.4375C43.4375 30 44.5833 29.7812 45.875 29.7812C47.1875 29.7812 48.3438 30 49.3438 30.4375C50.3542 30.8646 51.2031 31.4635 51.8906 32.2344C52.5781 33.0052 53.099 33.9167 53.4531 34.9688C53.8073 36.0104 53.9844 37.151 53.9844 38.3906V38.7188C53.9844 39.9479 53.8073 41.0885 53.4531 42.1406C53.099 43.1823 52.5781 44.0938 51.8906 44.875C51.2031 45.6458 50.3594 46.2448 49.3594 46.6719C48.3594 47.099 47.2083 47.3125 45.9062 47.3125C44.6146 47.3125 43.4635 47.099 42.4531 46.6719C41.4427 46.2448 40.5938 45.6458 39.9062 44.875C39.2188 44.0938 38.6979 43.1823 38.3438 42.1406C37.9896 41.0885 37.8125 39.9479 37.8125 38.7188ZM42.7031 38.3906V38.7188C42.7031 39.3854 42.7552 40.0104 42.8594 40.5938C42.974 41.1771 43.1562 41.6875 43.4062 42.125C43.6562 42.5625 43.9844 42.9062 44.3906 43.1562C44.8073 43.3958 45.3125 43.5156 45.9062 43.5156C46.5 43.5156 47 43.3958 47.4062 43.1562C47.8125 42.9062 48.1406 42.5625 48.3906 42.125C48.6406 41.6875 48.8177 41.1771 48.9219 40.5938C49.0365 40.0104 49.0938 39.3854 49.0938 38.7188V38.3906C49.0938 37.7344 49.0365 37.1198 48.9219 36.5469C48.8177 35.9635 48.6406 35.4479 48.3906 35C48.1406 34.5521 47.8073 34.2031 47.3906 33.9531C46.9844 33.7031 46.4792 33.5781 45.875 33.5781C45.2917 33.5781 44.7969 33.7031 44.3906 33.9531C43.9844 34.2031 43.6562 34.5521 43.4062 35C43.1562 35.4479 42.974 35.9635 42.8594 36.5469C42.7552 37.1198 42.7031 37.7344 42.7031 38.3906Z" fill="black"/>
<path d="M25.2188 47H20.2188L20.25 43.0625H25.2188C26.3542 43.0625 27.3125 42.8021 28.0938 42.2812C28.875 41.75 29.4688 40.9688 29.875 39.9375C30.2812 38.8958 30.4844 37.6302 30.4844 36.1406V35.0938C30.4844 33.9688 30.3698 32.9792 30.1406 32.125C29.9115 31.2604 29.5729 30.5365 29.125 29.9531C28.6771 29.3698 28.1198 28.9323 27.4531 28.6406C26.7969 28.349 26.0417 28.2031 25.1875 28.2031H20.125V24.25H25.1875C26.7292 24.25 28.1354 24.5104 29.4062 25.0312C30.6875 25.5521 31.7917 26.2969 32.7188 27.2656C33.6562 28.2344 34.3802 29.3802 34.8906 30.7031C35.401 32.026 35.6562 33.5 35.6562 35.125V36.1406C35.6562 37.7552 35.401 39.2292 34.8906 40.5625C34.3802 41.8854 33.6562 43.0312 32.7188 44C31.7917 44.9583 30.6927 45.6979 29.4219 46.2188C28.151 46.7396 26.75 47 25.2188 47ZM23.1094 24.25V47H18.0156V24.25H23.1094Z" fill="black"/>
<defs>
<linearGradient id="paint0_linear_37_29" x1="0" y1="0" x2="267" y2="2.37949e-06" gradientUnits="userSpaceOnUse">
<stop stop-color="#AD8215"/>
<stop offset="0.401208" stop-color="#908314"/>
<stop offset="0.969675" stop-color="#735C21"/>
</linearGradient>
</defs>
</svg>
